<?xml version="1.0" encoding="utf-8"?>
<!-- Generator: Adobe Illustrator 24.3.0, SVG Export Plug-In . SVG Version: 6.00 Build 0)  -->
<svg version="1.1" id="Layer_1" xmlns="http://www.w3.org/2000/svg" xmlns:xlink="http://www.w3.org/1999/xlink" x="0px" y="0px"
	 viewBox="0 0 1080 1920" style="enable-background:new 0 0 1080 1920;" xml:space="preserve">
<style type="text/css">
	.st0{fill:#FFFFFF;}
	.st1{fill:#C2E5EF;}
	.st2{fill:#FACBBF;}
	.st3{fill:#86C0B4;}
	.st4{fill:#8BD0C0;}
	.st5{fill:#BFC2CA;}
	.st6{fill:#F7BAC2;}
	.st7{fill:#F7B8BE;}
	.st8{fill:#FADCBE;}
	.st9{fill:#DBB7AA;}
	.st10{fill:#DBB8AB;}
	.st11{fill:#DCB8AB;}
	.st12{fill:#AB86DD;}
	.st13{fill:#FCBF3A;}
	.st14{fill:#AC86DC;}
	.st15{fill:#AB85DC;}
	.st16{fill:#AB86DC;}
	.st17{fill:#2D5BB9;}
	.st18{fill:#F36388;}
	.st19{fill:#F26C8C;}
	.st20{fill:#AF8BDE;}
	.st21{fill:#FAC832;}
	.st22{fill:#F36387;}
	.st23{fill:#F1668C;}
	.st24{fill:#FDC92C;}
	.st25{fill:#FCC72C;}
	.st26{fill:#F16789;}
	.st27{fill:#F2688B;}
	.st28{fill:#AD88DC;}
	.st29{fill:#AB87DB;}
	.st30{fill:#AF8ADC;}
	.st31{fill:#F36689;}
	.st32{fill:#F46A8E;}
	.st33{fill:#315EBA;}
	.st34{fill:#FBC52D;}
	.st35{fill:#F46688;}
	.st36{fill:#F26388;}
	.st37{fill:#2C59B7;}
	.st38{fill:#F7C42A;}
	.st39{fill:#2D5BB8;}
	.st40{fill:#F6C52F;}
	.st41{fill:#ED6A8B;}
	.st42{fill:#EE648A;}
	.st43{fill:#3661BA;}
	.st44{fill:#F1688A;}
	.st45{fill:#335EBA;}
	.st46{fill:#AD89D7;}
	.st47{fill:#2F5CB9;}
	.st48{fill:#2756B6;}
	.st49{fill:#F36287;}
	.st50{fill:#2E59B8;}
	.st51{fill:#F26589;}
	.st52{fill:#2E5BB7;}
	.st53{fill:#EE6D94;}
	.st54{fill:#335DB9;}
	.st55{fill:#FAC635;}
	.st56{fill:#FEC527;}
	.st57{fill:#FEE3A9;}
	.st58{fill:#B6A388;}
	.st59{fill:#B7A58A;}
	.st60{fill:#F7CAC0;}
	.st61{fill:#96BBBA;}
	.st62{fill:#97BBBA;}
	.st63{fill:#97BCBA;}
	.st64{fill:#B6A389;}
	.st65{fill:#FEFEFD;}
	.st66{fill:#F6C276;}
	.st67{fill:#FEECE6;}
	.st68{fill:#F28996;}
	.st69{fill:#FBD4AF;}
	.st70{fill:#FED0A8;}
	.st71{fill:#FEFEFE;}
	.st72{fill:#F6DB97;}
	.st73{fill:#C2E6EF;}
	.st74{fill:#F6C377;}
	.st75{fill:#C0CEB9;}
	.st76{fill:#C8E4E5;}
	.st77{fill:#CCE3DE;}
	.st78{fill:#FCFDFE;}
	.st79{fill:#FDFDFE;}
	.st80{fill:#FDFEFE;}
	.st81{fill:#FEEDE7;}
	.st82{fill:#E6E9EA;}
	.st83{fill:#9CD5E5;}
	.st84{fill:#FBD275;}
	.st85{fill:#F28794;}
	.st86{fill:#379784;}
	.st87{fill:#9BD5E5;}
	.st88{fill:#F28694;}
	.st89{fill:#369784;}
	.st90{fill:#FDD174;}
	.st91{fill:#FED273;}
	.st92{fill:#FBD174;}
	.st93{fill:#FDD173;}
	.st94{fill:#FDD275;}
	.st95{fill:#9ED2E2;}
	.st96{fill:#EA8693;}
	.st97{fill:#3B9A8A;}
	.st98{fill:#3B9A89;}
	.st99{fill:#EB8693;}
	.st100{fill:#F6C376;}
	.st101{fill:#F4C57D;}
	.st102{fill:#F4C47C;}
	.st103{fill:#F4C57E;}
	.st104{fill:#F5C47B;}
	.st105{fill:#FEFDFC;}
	.st106{fill:#FEFCFA;}
	.st107{fill:#FEFCF9;}
	.st108{fill:#FEFCF8;}
	.st109{fill:#F7B5BE;}
	.st110{fill:#F6C277;}
	.st111{fill:#F6C279;}
	.st112{fill:#F6C37B;}
	.st113{fill:#C8E0E9;}
	.st114{fill:#CADEE8;}
	.st115{fill:#A4B0B3;}
	.st116{fill:#F7CA8F;}
	.st117{fill:#F6EFBD;}
	.st118{fill:#F7CA8E;}
	.st119{fill:#F9F1BA;}
	.st120{fill:#ECF1F6;}
	.st121{fill:#FDFCFB;}
	.st122{fill:#F8F9F9;}
	.st123{fill:#EBE8BA;}
	.st124{fill:#F9F0B9;}
	.st125{fill:#B2AEAA;}
	.st126{fill:#F7B6BE;}
	.st127{fill:#DCB7AB;}
</style>
<rect y="3" class="st0" width="1078" height="1918"/>
<path class="st1" d="M341.1,247.5c11.1,1.3,22.2,0.2,33.3,0.5c3.2,0.1,6.4,0.6,9.7,0.6c4.8-0.1,7,3.4,4.9,7.8
	c-0.8,1.7-1.9,3.2-2.7,4.9c-2,4.6-0.8,8.3,3.1,11.5c10.1,8.3,16.2,19.2,18.6,31.9c1.9,10,1.8,20-2.8,29.5
	c-5.9,11.9-16.1,18-28.6,20.5c-13.6,2.7-27.2,2.2-40.4-2.2c-13.3-4.5-22.4-13.2-24.9-27.2c-2.7-15.6,0.2-30.3,10.1-43.2
	c3.2-4.2,7.1-7.6,11.1-11c3.4-2.8,4.4-6.7,2.6-10.6c-0.6-1.4-1.4-2.7-2-4c-2.7-5.5-0.8-8.8,5.2-8.9
	C339.1,247.5,340.1,247.5,341.1,247.5z"/>
<path class="st2" d="M261,283.3c3,0,6,0,9-0.1c1.6,0,2.3,0.5,1.8,2.3c-0.5,2-0.6,4.2-1.4,6.2c-1.2,3.2,0.2,3.7,2.9,3.5
	c2-0.1,4-0.1,6,0c7.3,0.1,12.6,3.4,15.6,10.1c3.2,7.2,2.7,14.9,1.8,22.4c-0.7,5.4-4.7,9.4-9.4,11.9c-15.2,8.3-30.7,9.9-46.2,1.1
	c-9.7-5.4-14.8-19-12.6-29.8c1.6-7.9,9.5-13.3,19.1-13.9c0.5,0,1,0,1.5,0c4.2-0.3,4.4-0.7,3.1-4.7c-3-8.8-3-8.8,6.5-8.9
	C259.5,283.4,260.3,283.4,261,283.3C261,283.4,261,283.3,261,283.3z"/>
<g>
	<path class="st3" d="M672.8,27.3c9.8,0.4,19.5,1.9,29.3,2.9c12.5,1.3,25,2.8,37.4,4.1c1.4,0.2,2.7,0.1,3.8-1
		c9.1-9.6,18.2-19.1,27.3-28.6c22-0.4,44-0.8,65.9-1.1c-5.8,5.9-12.5,10.6-18.6,16.1c-0.6,0.6-1.5,0.9-1.7,2.3
		c6.3,0.6,12.5,1.2,18.8,1.8c2.1,0.2,4.2,0.4,6.3,0.6c0.8,0.1,1.9-0.3,2.2,0.9c0.3,1-0.4,1.6-1,2.2c-4.2,3.7-8.4,7.5-12.6,11.2
		c-13.9,12.1-27.7,24.3-41.6,36.4c-2.1,1.8-3.9,4-6.2,5.4c-3.2,2-3.8,5-4.1,8.2c-0.4,4.7-0.9,9.4-1.3,14.1c-0.2,2.7,0.2,4.9,2.2,7.1
		c6.6,7.1,12.7,14.7,19.1,21.9c2.2,2.5,2.9,4.4,0,7c-3.1,2.8-5.7,6.2-8.6,9.3c-0.7,0.7-1.3,1.7-2.5,1.1c-1-0.5-0.7-1.5-0.6-2.3
		c0.2-3.5,0.4-6.9,0.7-10.4c0.1-1.6-0.3-2.8-2.2-2.6c-8.5,0.8-15.1-3.3-21.9-7.8c-21.4-13.9-43-27.6-64.6-41.2
		c-2.7-1.7-4.2-4-5.4-6.8c-3.3-8.4-6.8-16.8-10.2-25.2c-0.4-0.9-1-1.7-1.5-2.5c-3.6-5.3-5.1-11.6-7.6-17.4
		C673.1,31.1,671.7,29.4,672.8,27.3z"/>
	<path class="st4" d="M672.8,27.3c2.6,6.7,5.3,13.4,7.9,20.1c0.4,0.9,0.5,1.9,0.8,2.8c-8.7-0.7-17.3-1.3-26-2
		c-3.8-0.3-7.7-0.7-11.5-1c-0.9-0.1-1.8-0.1-2.1-1.2c-0.2-0.9,0.6-1.3,1.2-1.7c9.4-5.6,18.9-11.2,28.3-16.8
		C671.8,27.3,672.4,27.3,672.8,27.3z"/>
</g>
<g>
	<path class="st5" d="M566.5,302.8c6.1-7.1,13.6-12.8,20.5-19c9.6-8.6,19.4-17.1,29.1-25.6c7.8-6.7,15.8-13.3,23.7-19.9
		c1.6-1.3,3.1-2.7,5.3-3.3c-7.4,7.8-14.5,15.6-21.9,23.1c-4.3,4.4-8.9,8.3-13.3,12.6c-11.7,11.3-23.4,22.7-35.2,33.9
		c-1.8,1.7-3.8,3.2-5.9,4.6c-1.3,0.9-3,2-4.4,0.5c-1.5-1.5-1.1-3.4,0-5.1c0.2-0.3,0.4-0.6,0.6-1c1.7-1,1.9,1.6,3.5,1.1
		C567.5,304.5,566.7,303.8,566.5,302.8z"/>
	<path class="st6" d="M566.5,302.8c1.1,0.6,2,2.1,4.1-0.4c-0.8,2.5-1.8,3.2-3.1,4.3c-0.5-1.4-1-2.6-2.4-3
		c-7.1-2.5-13.5-0.2-19.6,3.1c-10.5,5.7-19.7,13.4-30.4,19.9c9.5,6.8,19.5,10,30.8,8.4c3.1-0.4,6.1-1.2,9-2.4
		c10.8-4.5,15.1-10.5,16.7-23.7c2.5,7.3-0.5,12.6-4.6,17.4c-6,7-14.3,9.7-23.2,10.6c-10.2,1-19.5-2-27.9-7.7c-1.8-1.2-3-1.4-5-0.2
		c-8,4.6-16.7,7.6-26,8.8c-2.6,0.3-5.1-0.6-7.7-0.9c4.9-0.7,9.9,0,14.7-1.3c6.5-1.8,12.7-4.4,18.6-7.7c2.7-1.5,0.6-2.4-0.3-3.2
		c-6-5.5-10.3-12.1-12.8-19.8c-0.2-0.6-0.6-1.1,0.1-2.1c1.2,2.4,2.3,4.7,3.4,6.9c2.6,5.3,6.2,9.9,10.5,14c1.7,1.6,2.8,2.2,5,0.6
		c7.6-5.4,15.3-10.7,23.1-15.8c5.7-3.6,11.6-6.7,18.6-7.2C561.2,301.1,563.9,301.5,566.5,302.8z"/>
</g>
<g>
	<path class="st7" d="M676.7,299.5c0.1,1.4,0.1,2.7-0.3,4.1c-0.3,0.8-0.6,2,0.4,2.3c4.5,1.6,2.2,3.1,0.1,5c-1.8,1.7-0.7,4.5,1.8,5.3
		c1.9,0.7,2.7,1.9,0.9,3.6c-1,0.9-2,1.8-3.2,3c3,1.3,6,0.4,8.9,1.2c10.6,2.8,14.5,15.8,7,23.8c-0.4,0.5-0.9,0.9-1.3,1.3
		c-4.2,4.4-4.2,5-0.7,10.1c1.1,1.6,3.1,3,2.2,6c-1.9-3-3.6-5.5-5.2-8.1c-1.7-2.8-1.2-5.4,1.1-7.7c2.5-2.4,5-4.7,5.8-8.5
		c0.9-4.5,0.3-8.4-2.9-11.7c-3.7-3.8-8.3-4.9-13.4-4.3c-1.8,0.2-2.1,2.1-0.9,2.6c5.5,2.6,0.9,3.9-0.5,5.6c-0.7,4.7,0.2,9.4-0.2,14.1
		c-0.7,1.3-2.1,1.7-3.4,2.1c-13.4,3.9-26.6,2.9-39.8-0.8c-0.7-0.2-1.4-0.6-1.9-1.1c-0.1-3.2-0.1-6.5-0.2-9.7
		c-0.1-2.2,0.2-4.3-2.2-5.9c-1.8-1.2-1.2-3.4,0.4-4.8c2.2-2,2-3.3-0.6-4.8c-2.5-1.4-2.5-3.1,0-4.8c3-2,3-3.9,0-6.2
		c-1.3-1-2.6-2.5-0.5-3.4c4.9-2.1,3.1-5.7,2.5-9.1c1.1-1,2.3-0.7,3.5-0.4c12.8,2.5,25.7,2.5,38.5,0.4
		C673.9,298.5,675.5,298.3,676.7,299.5z"/>
	<path class="st8" d="M624.8,287.7c-0.2-2.4,1.2-3.8,3.2-4.5c5.7-1.9,11.4-3.3,17.4-3.4c9.6-0.2,19.1-0.7,28.6,1.1
		c3.9,0.7,7.5,2,8.4,6.6c-1.9,4-5.7,5.1-9.4,6c-8,1.8-16.1,1.8-24.2,1.3c-5.8-0.4-11.7-1.1-17.3-2.8
		C628.9,291.2,626.2,290.5,624.8,287.7z"/>
	<path class="st9" d="M624.8,287.7c5.2,3.7,11.2,4.4,17.2,5.2c10.1,1.5,20.2,1.4,30.3-0.3c3.9-0.7,7.2-2.6,10.1-5.1
		c0.8,3.7-0.1,6.6-3.2,9c-1,0.8-1.7,2-2.6,3.1c-5.6,0.6-11.3,1.4-16.9,1.8c-9.9,0.7-19.7-0.3-29.4-2.5c-1.1-1.6-2-3.5-3.4-4.8
		C625,292.2,624.4,290.2,624.8,287.7z"/>
	<path class="st8" d="M676.1,347.4c0.3-4.7-1-9.5,0.4-14.2c0.1,3.9,0.4,7.9,0.2,11.8c-0.1,3.3,0.6,5.8,3.8,7.2
		c0.8,0.3,1.4,1,1.6,1.9c-0.7,1.9-2.2,2.9-4,3.6c-17.8,6.4-35.3,6.2-52.6-1.7c-0.9-0.4-1.7-1-2.4-1.7c2.7-1.8,5.4-3.6,8.1-5.4
		c1.7-0.6,3.2,0.3,4.7,0.8c9.5,2.9,19.1,3.6,28.9,2.7C668.9,352,673.2,351,676.1,347.4z"/>
	<path class="st10" d="M623,354.3c6.7,2,13.2,4.8,20.3,6.1c12.4,2.2,24.2-0.2,35.8-4.2c1.1-0.4,2-1.4,3-2.1c0.8,3.4-0.6,4.8-3.8,6.4
		c-16.5,7.9-33.1,6.1-49.9,1.5C624.5,360.9,622.3,358.6,623,354.3z"/>
	<path class="st11" d="M676.1,347.4c0.2,1.6-0.5,2.5-1.9,3.3c-2.5,1.4-5.3,2.5-8.1,2.7c-11.9,0.9-23.8,0.6-35-4.5c0-0.5,0-1,0-1.5
		c5.3,0.9,10.7,1.8,16,2.7C657.1,351.9,666.6,350,676.1,347.4z"/>
</g>
<g>
	<path class="st12" d="M1018,0.4c0,3.2-1,5.9-4,7.5c-1.4,0.4-2.8,0.4-4.1-0.5c-3.2-1.4-2.3-4.3-2.4-6.8
		C1011,0.5,1014.5,0.5,1018,0.4z"/>
	<path class="st13" d="M871.8,2.9c-0.2,0.5-0.7,1.1-0.7,1.6c0,1.4,0,2.8-1.9,2.8c-1,0-2-0.1-2.5-1.1c-0.8-1.6,0.3-2.5,1.4-3.3
		C869.3,2.9,870.6,2.9,871.8,2.9z"/>
	<path class="st14" d="M902.5,104c-0.4-0.9-0.7-1.7-1.6-2.4c-3-2.5-3.3-5.9-1-8.5c2.2-2.4,6.9-2.6,9.1-0.3c2.6,2.6,2.3,5.5-0.8,8.4
		c-0.3,0.3-0.6,0.4-0.9,0.6C905.5,102,903.9,102.8,902.5,104z"/>
	<path class="st15" d="M867.3,33.7c-2.6-0.3-4.5-1.6-5.2-4.2c-0.7-2.7,0.6-4.8,2.8-6.4c1.6-1.2,3.2-1.3,4.8-0.1
		c4.2,2.9,4.6,5.3,1.3,9.6C870.2,34.5,868.9,34.7,867.3,33.7z"/>
	<path class="st14" d="M1066.6,41.6c0.2,2.1,0.3,4.3-1.3,6c-1.6,1.7-3.6,2.6-6,1.8c-2.2-0.7-3.1-2.5-3-4.6c0.1-2.6,1.4-4.5,3.9-5.4
		c1-0.4,2.2-0.5,3.3-0.7C1065.2,38.9,1066.2,39.9,1066.6,41.6z"/>
	<path class="st16" d="M1013.1,31.2c5.1,4.6,5.2,5,2.5,11.1c-1,1.2-2.2,1.7-3.7,0.9c-5.3-1.8-6.1-4.3-3-9.8
		C1009.8,31.8,1011.4,31.4,1013.1,31.2z"/>
	<path class="st15" d="M1040.1,65.9c-1.6,2.1-3.4,4.1-6.4,3.5c-2.7-0.5-3.8-2.5-4.1-5.1c-0.5-2.1,0.1-3.6,2.2-4.3
		c3.6-1.9,6.6-1,8.9,2.3C1041.3,63.6,1041,64.8,1040.1,65.9z"/>
	<path class="st15" d="M887.1,66.9c-2.9,0-5.1-1.2-5.9-4c-0.9-2.9,0.7-5.7,3.4-6.4c3.6-0.8,6.4,0.8,6.9,4.2c0.1,0.8-0.1,1.7-0.1,2.6
		C890.5,65.1,889,66.3,887.1,66.9z"/>
	<path class="st17" d="M900.1,113.8c-1.4-2.3-1.6-4.3,1.4-5.4c1.4-0.7,2.4-0.4,3,1.1c0.9,1.9,0.8,3.6-1.4,4.6
		C902,114.6,901,114.8,900.1,113.8z"/>
	<path class="st18" d="M887.1,66.9c0.9-1.8,2.4-2.9,4.3-3.6c2,1,2.6,2.4,0.9,4.1C890.5,69.1,888.6,69.5,887.1,66.9z"/>
	<path class="st17" d="M865.3,15.8c-1-1.4-1-2.8,0.4-3.9c1.1-0.8,2.5-0.6,3.4,0.2c1.4,1.3,1.1,2.8-0.1,4.2
		C867.6,17.5,866.3,17.3,865.3,15.8z"/>
	<path class="st19" d="M1009.9,7.4c1.4-0.1,2.8-0.4,4.1,0.5c0.6,1.4,0.6,2.6-0.8,3.5c-1,0.6-2.1,0.5-3.1-0.1
		C1008.5,10.1,1009.2,8.7,1009.9,7.4z"/>
	<path class="st20" d="M1078.6,22.6c0.3-1.4,0.9-2.4,2.4-2.3c1.7,0,2.4,1.3,2.4,2.7c0,1.4-1.1,2.2-2.5,2.1
		C1079.4,24.9,1078.8,23.8,1078.6,22.6z"/>
	<path class="st21" d="M1073,32.5c0.4,1.7-0.2,3.1-1.9,3.3c-1.3,0.2-2.2-1.1-2.8-2.1c-0.9-1.6,0.4-2.4,1.7-3
		C1071.8,30.1,1072.7,30.8,1073,32.5z"/>
	<path class="st22" d="M902.5,104c0.4-3.4,2.3-3.4,4.8-2.1c0.7,1.7,0.6,3.1-1.3,3.9c-1.5,0.9-2.7,0.6-3.4-1.1
		C902.6,104.4,902.5,104.2,902.5,104z"/>
	<path class="st23" d="M900.9,80.7c2.1,0.5,2.6,1.8,1.7,3.7c-0.6,1.5-1.6,1.9-3.1,1.2c-1.8-0.7-1.8-2.3-1.6-3.8
		C898.6,80.7,899.6,80.2,900.9,80.7z"/>
	<path class="st24" d="M1050.3,58.3c0.1,1.6-0.2,3.1-2.2,3.1c-1.5,0-2.7-1.1-2.8-2.5c-0.2-1.9,1.4-2.3,3-2.3
		C1049.5,56.6,1050.2,57.2,1050.3,58.3z"/>
	<path class="st25" d="M1016.6,49.8c-2.1-0.3-2.7-1.5-2.2-3.4c0.3-1.2,1.1-1.5,2.3-1.3c2.7,0,3.3,1.4,2.2,3.7
		C1018.4,49.8,1017.7,50.2,1016.6,49.8z"/>
	<path class="st26" d="M1027.2,62.2c-2.1,0.3-3.2-0.5-3.1-2.7c0-1.6,0.6-2.5,2.4-2.3c1.3,0.2,2.3,0.7,2.5,2.2
		C1029.5,60.9,1028.8,61.8,1027.2,62.2z"/>
	<path class="st27" d="M895.9,125.2c-0.3-1.6,0.1-3,1.7-3.6c0.9-0.4,1.7,0.1,2.4,0.6c1.5,1.2,0.7,2.4,0,3.6
		C898.4,127,897,127.1,895.9,125.2z"/>
	<path class="st28" d="M1050.3,58.3c-0.6-0.6-1.3-1.1-1.9-1.7c-0.1-2.2,1.1-3.1,3.2-3.1c1,0.1,1.7,0.7,1.8,1.7
		C1053.5,57.5,1052.3,58.3,1050.3,58.3z"/>
	<path class="st29" d="M900.1,113.8c1,0.1,2,0.1,3,0.2c0.4,1.6,0.9,3.2-1.1,4.1c-1.2,0.6-2.2-0.1-2.9-1
		C898,115.7,898.6,114.6,900.1,113.8z"/>
	<path class="st30" d="M900.9,80.7c-1,0.4-2,0.7-3,1.1c-1.1-0.7-2.6-1.3-1.8-3c0.6-1.2,1.7-1.8,3-1.5
		C901.1,77.7,900.9,79.3,900.9,80.7z"/>
	<path class="st31" d="M1016.6,49.8c0.8-0.3,1.5-0.7,2.3-1c1.4,0.1,2.9,0.2,2.7,2.2c-0.2,1.7-1.7,2.1-3,2.1
		C1016.4,53,1016.4,51.4,1016.6,49.8z"/>
	<path class="st32" d="M897.6,140.8c-1.7-0.3-2.8-0.9-2.7-2.6c0.1-1.4,0.9-1.9,2.2-1.8c1.4,0,2.4,0.6,2.4,2.1
		C899.7,139.9,898.8,140.6,897.6,140.8z"/>
	<path class="st33" d="M891.9,73.1c0.7-1.6,1.9-2.4,3.4-2.5c1.1-0.1,1.9,0.9,1.7,2c-0.3,1.7-1.8,2.3-3.3,2.4
		C892.6,75.2,892.2,74.1,891.9,73.1z"/>
	<path class="st34" d="M902.6,104.6c1,0.8,2.2,1,3.4,1.1c0.7,1.8,0,2.9-1.6,3.7c-0.9-0.6-1.9-1-3-1.1
		C900.8,106.8,900.7,105.4,902.6,104.6z"/>
	<path class="st35" d="M879.8,51.3c0.7,0.9,2.4,1.5,1.3,3c-0.7,0.9-1.6,2.1-3,1.9c-1.3-0.2-1.7-1.3-1.8-2.5
		C876.5,51.5,877.8,50.8,879.8,51.3z"/>
	<path class="st36" d="M1053.4,55.3c-0.6-0.6-1.2-1.2-1.8-1.7c0-1.6,0.4-3,2.5-2.9c1.3,0.1,2.1,0.8,2.2,2.1
		C1056.4,54.7,1055.1,55.2,1053.4,55.3z"/>
	<path class="st37" d="M899.5,85.7c1-0.4,2.1-0.8,3.1-1.2c1.6,0.6,2.1,1.8,1.4,3.2c-0.7,1.2-2.1,1.9-3.5,1.4
		C898.7,88.5,899.2,87,899.5,85.7z"/>
	<path class="st38" d="M1011.6,22.1c0.7,1.4,0.6,2.7-1.1,3.2c-1,0.3-2.2,1-3-0.1c-0.9-1.1-0.6-2.3,0.3-3.3
		C1009.2,20,1010.4,20.7,1011.6,22.1z"/>
	<path class="st39" d="M1026.5,57.1c-0.8,0.8-1.6,1.6-2.4,2.3c-1.5,0-2.9-0.4-2.7-2.1c0.1-1.3,1.5-2,2.6-2.3
		C1025.6,54.5,1026.5,55.4,1026.5,57.1z"/>
	<path class="st40" d="M899.4,129c0.9,1,1.3,2.2,0.2,3.2c-1,0.9-2.4,0.9-3.4,0.2c-1.4-0.9-1-2.3-0.3-3.5
		C897.1,127.9,898.3,127.9,899.4,129z"/>
	<path class="st41" d="M1071.8,27.8c0.5-1.3,1.1-2.6,2.8-2.4c1,0.1,1.9,0.5,2.3,1.6c0.6,1.8-0.6,2.7-1.8,3.6
		C1073.5,30.1,1072.6,29,1071.8,27.8z"/>
	<path class="st42" d="M867.3,33.7c1.3,0,2.5-0.4,3.7-1c1.2,0.7,1.5,1.8,1.3,3c-0.7,1.7-1.9,2.1-3.6,1.5
		C867.3,36.4,866.8,35.3,867.3,33.7z"/>
	<path class="st43" d="M868.7,37.3c1.2-0.5,2.4-1,3.6-1.5c1,0.8,2.1,1.5,1,3c-0.8,1-2.2,1.4-3.3,1.4C868.5,40,868.3,38.6,868.7,37.3
		z"/>
	<path class="st44" d="M875.6,46c2,0.1,3.6,0.5,2.3,3.1c-0.7,1.1-1.4,1.9-2.9,1.5c-1.5-0.7-2.1-1.8-1.5-3.4
		C873.7,45.9,874.4,45.6,875.6,46z"/>
	<path class="st45" d="M1040.1,65.9c-0.1-1.3-0.1-2.5,0.7-3.7c2.1-0.8,2.5,1.1,3.1,2.2c0.5,0.8,0,1.6-0.7,2.2
		C1041.7,67.9,1041,66.6,1040.1,65.9z"/>
	<path class="st46" d="M865.3,15.8c1.1,0.7,2.4,0.7,3.7,0.6c0,1.2,0,2.5,0,3.7c-1.2,1.1-2.4,1.1-3.6,0.1
		C864,18.7,865.1,17.3,865.3,15.8z"/>
	<path class="st47" d="M875.6,46c-0.7,0.4-1.4,0.8-2.1,1.2c-1.5-0.2-2.8-0.8-1.9-2.5c0.7-1.3,2.1-2.4,3.5-2
		C877,43.3,876.2,44.8,875.6,46z"/>
	<path class="st48" d="M1016.6,45.1c-0.8,0.4-1.5,0.9-2.3,1.3c-2.6,0.3-2.5-1.5-2.4-3.3c1.2-0.3,2.5-0.6,3.7-0.9
		C1017,42.9,1016.8,44,1016.6,45.1z"/>
	<path class="st49" d="M1008,18.6c-0.5-1.4-0.8-2.7,0.8-3.6c1-0.6,2.3-0.5,3.1,0.4c0.9,1.1,0.9,2.3-0.2,3.3
		C1010.4,19.5,1009.2,19.5,1008,18.6z"/>
	<path class="st50" d="M1013.1,31.2c-0.9,1.6-2.8,1.5-4.2,2.2c-1-1.2-1.9-2.8,0.1-3.5C1010.2,29.5,1012.8,27.7,1013.1,31.2z"/>
	<path class="st51" d="M1066.6,41.6c-1.1-1-2.1-1.9-3.2-2.9c0.8-1.9,2.2-2.9,3.9-1.2C1068.9,38.9,1068.4,40.5,1066.6,41.6z"/>
	<path class="st52" d="M1008,18.6c1.2,0,2.4,0,3.6,0.1c0.9,1.1,1,2.3,0,3.5c-1.2-0.5-2.5-0.6-3.8-0.2
		C1006.4,20.7,1007.4,19.7,1008,18.6z"/>
	<path class="st48" d="M1071.8,27.8c1.7,0.3,2.9,1,3.2,2.8c-0.4,1-1,1.7-2,2c-1-0.6-2-1.1-2.9-1.7
		C1070,29.4,1070.3,28.2,1071.8,27.8z"/>
	<path class="st53" d="M865.4,20.2c1.2,0,2.4-0.1,3.6-0.1c0.6,0.9,1,1.9,0.7,3c-1.6,0-3.2,0-4.8,0.1
		C864.5,22.1,864.8,21.1,865.4,20.2z"/>
	<path class="st54" d="M899.4,129c-1.2,0-2.3-0.1-3.5-0.1c-0.8-1.2-0.9-2.4,0-3.7c1.3,0.8,2.7,0.8,4.2,0.6
		C900.5,127,900.2,128,899.4,129z"/>
	<path class="st55" d="M1027.2,62.2c0.6-1,1.2-2,1.8-2.9c1,0,2.1-0.4,2.9,0.7c-1.1,1.3-1.7,2.8-2.2,4.3
		C1028.3,64.2,1027.3,63.7,1027.2,62.2z"/>
	<path class="st56" d="M875,50.6c0.9-0.5,1.7-1.5,2.9-1.5c1,0.5,1.8,1.1,1.9,2.3c-1.5,0.4-2.7,1-3.5,2.4
		C874.6,53.2,874.5,52.1,875,50.6z"/>
</g>
<g>
	<path class="st57" d="M843.1,296.7c0.9,1.7,2.8,2.1,4.3,2.7c6.2,2.6,10.7,6.7,12.3,13.4c-0.8,9.3-7.4,14.2-14.4,18.3
		c-16.7,9.8-34.6,16.3-53.9,18c-19.2,1.7-37.6-1.3-53.7-13.1c-6-4.4-10.4-10.3-14.4-16.5c-8.3-16.9-8.6-33.1,3.4-48.9
		c14.4-18.8,31.8-33.5,54.2-41.6c15-5.4,30.4-7.7,46-2.6c12.3,3.9,20.1,12.4,24.3,24.5c0.8,2.5,1.6,5,2.3,7.4c-0.4,4.7,0.7,9.3-1,14
		c-2.1,5.6-5.1,10.8-7.9,16.1C843.2,291.1,842.1,293.7,843.1,296.7z"/>
	<path class="st58" d="M723.3,319.6c3.6,3.5,6.3,7.9,10,11.4c9.7,9.4,21.6,14.1,34.6,16.2c28.1,4.6,53.4-3.9,77.5-17.2
		c6.9-3.8,12.2-9.3,14.4-17.2c1.7,7.4-1.5,12.9-7,17.2c-12.7,10-27.7,15.3-43,19.2c-17.9,4.6-36,4.9-53.8-1.3
		C741.2,343,730.2,333.7,723.3,319.6z"/>
	<path class="st59" d="M843.1,296.7c-2.2-1.2-1.7-3-1.1-4.8c1.4-4.3,4.1-7.9,6.1-11.8c3.1-6.1,5.4-12.4,4.9-19.5
		c-0.1-0.7-0.1-1.5,0.6-2.1c2.5,10.4-0.2,19.8-5.5,28.7C846.2,290.2,844.8,293.5,843.1,296.7z"/>
	<path class="st1" d="M742,303.7c-9.9-9.7-4.9-20.8,0.8-30.1c1.7-2.7,4.6-4.1,7.8-4.7c4-0.8,7.7-2.8,11.9-3c5.7-0.2,9.3,4.2,7.7,9.8
		c-1.4,5.1-4.9,9.5-5.6,14.9c-0.2,1.4-1.1,2.8-0.3,4.3c-6.8,2.9-13.4,6.1-20.2,9C743.4,304.1,742.7,304.2,742,303.7z"/>
	<path class="st60" d="M792.3,263.6c-0.5-1.7,0.4-3.6,1.7-4.5c5.6-4,10.5-9.6,17.3-11.1c5.2-1.1,10.6-2.2,15.9-2.6
		c5.9-0.4,9.6,5.1,6.8,10.4c-2,3.8-4.1,7.6-6.1,11.4c-1.8,3.5-5,4.6-8.8,3.9c-5.9-1.1-11.9,0.2-17.8,0.1
		C796.1,271.1,792.4,268.1,792.3,263.6z"/>
	<path class="st61" d="M742,303.7c4.9-2.2,9.7-4.3,14.6-6.5c2.5-1.2,5-2.2,7.8-2.3c2.5,0,5,0.5,5.9,3.1c0.9,2.6,0.5,5.3-1.5,7.3
		c-3.3,3.2-5.7,6.9-8.2,10.6c-4.1,6-11.5,8.2-16.6,5.3C736.4,316.8,735.6,309.9,742,303.7z"/>
	<path class="st62" d="M782.9,246c0.4-1.5,0.8-3,2.3-3.7c5.1-2.5,9.9-5.9,15.5-7.3c1.3-0.3,2.7-0.6,4.1-0.4c3.1,0.3,6.2,1.1,6.9,4.6
		c0.7,3.3-1.9,4.9-4.2,6.3c-2.9,1.8-5.6,3.6-8.1,6c-2.2,2-4.8,3-7.9,2c-1.8-0.6-3.6-1-5.4-1.5C783.5,250.8,781.8,249.2,782.9,246z"
		/>
	<path class="st60" d="M782.9,246c0,2.5,1.8,4.1,3.2,5.9c-0.1,4.5-3,7.3-6.4,9.4c-4,2.4-8.7,3-13.3,2.9c-3,0-5.4-3.3-4-5.8
		c3.4-5.5,6.5-11.5,13.6-13.4C778.6,244.4,780.7,245.5,782.9,246z"/>
	<path class="st1" d="M798.7,289.9c0.8-2,1.6-3.9,2.3-5.9c2.4-6.3,6.1-8.6,12.8-8.6c2.6,0,4.3,1.3,5.4,3.3c1,1.9,0.6,4.1-0.8,5.6
		c-3.1,3.2-5.7,6.8-8.1,10.6c-1.6,2.5-4.5,3.4-7.6,3.1C801.4,295.3,799.3,292.9,798.7,289.9z"/>
	<path class="st60" d="M798.7,289.9c1.9,2.4,4.1,4.7,4,8.1c-1,6.2-5.1,8.3-10.6,5.4c-6.8-3.5-9.4-13.2-3.8-17.1
		c-0.1-0.6,0.1-0.9,0.8-0.6C792.2,287.1,795.4,288.5,798.7,289.9z"/>
	<path class="st1" d="M787.3,319.3c0.1,5.6-1,6.6-6.7,6.2c-3-0.2-6,0.3-8.9,0.1c-3.6-0.3-5.8-3.3-5.4-7.1c0.3-3,3.7-5.9,6.8-4.7
		C777.8,315.5,783.2,315.8,787.3,319.3L787.3,319.3z"/>
	<path class="st62" d="M789,285.8c-0.3,0.2-0.5,0.4-0.8,0.6c-2.4,0.1-5.1,1-6.4-2.1c-1.3-3.1,0.4-5.1,2.5-7.2
		c2.5-2.4,5.5-3.4,8.8-3.4c2.6,0,4.6,1.3,5.4,3.8c0.8,2.6-1.1,4.3-3,5.4C793.4,284,791.1,284.8,789,285.8z"/>
	<path class="st63" d="M787.3,319.3c-0.3-6.3,4.5-11.3,10.9-11.3c2.2,0,3.8,1.2,4.9,3c1,1.7-0.2,3.2-1,4.5
		C798.9,320.1,792.5,321.8,787.3,319.3C787.3,319.3,787.3,319.3,787.3,319.3z"/>
	<path class="st64" d="M815,327.8c-2.8-0.3-3.4-1.7-2-4c4.5-7,10.9-11.4,19.2-12.6c1.7-0.3,3.2,0.3,4.7,0.8c0.8,0.3,1.6,0.9,1.7,1.8
		c0.1,1.3-0.9,1.6-1.9,1.8c-0.4,0.5-1,0.7-1.6,0.8c-7.2,0.2-12.6,3.9-17.3,9C817,326.3,816,327,815,327.8z"/>
	<path class="st65" d="M815,327.8c5.1-7.8,11.9-12.7,21.7-12.2c0.6,0.9,0.3,1.6-0.4,2.3C830.5,323.8,823.6,327.6,815,327.8z"/>
</g>
<g>
	<path class="st66" d="M592.1,176.2c-0.2-15.6,6.3-27.8,19.6-35.8c14.8-9,29.9-7.7,44.8,0.4c16.3,8.9,21.6,25.8,20.1,42.6
		c-1.2,12.5-6.5,22.6-16.4,30.2c-19.4,14.9-54.8,9.6-64-17.3C593.9,189.7,592.1,183.2,592.1,176.2z"/>
	<path class="st65" d="M625.2,164.8c3.8-0.1,5.9,1.6,6,5c0.1,3.6-2.5,6.2-6.4,6.3c-3.2,0-5.7-2.2-5.7-5.2
		C619,167.5,621.5,164.9,625.2,164.8z"/>
	<path class="st65" d="M620.7,185.5c0-3.5,2.3-6.1,5.6-6.2c3.2-0.1,5.7,2.4,5.7,5.6c0,3.7-2.6,6.4-5.9,6.4
		C622.7,191.2,620.7,189.1,620.7,185.5z"/>
	<path class="st65" d="M646.9,169.1c0.1,4-1.7,6.1-5.2,6.2c-3.3,0-5.9-2.5-6-5.8c-0.2-2.9,2.8-6.1,5.8-6.2
		C644.5,163.2,646.8,165.8,646.9,169.1z"/>
	<path class="st65" d="M647.9,184.3c0.1,3.4-1.5,5.2-4.8,5.2c-3.7,0.1-6.6-2.5-6.6-6c0-3.2,2.1-5.3,5.4-5.4
		C645.3,178,647.8,180.6,647.9,184.3z"/>
</g>
<g>
	<path class="st67" d="M367.7,4.8c-0.3,3.8-3,6.5-4.6,9.6c-3,5.7-7,10.7-11.4,16.8c7.6-3.5,14.2-6.8,21.1-9c4.7-1.5,9.5-3,14.6-2.6
		c1.4,0.1,2.9,0.1,3.5,1.6c0.7,1.6-0.5,2.6-1.5,3.5c-5.4,4.9-12,7.4-18.6,10c-3.4,1.3-6.8,2.3-10.3,3.3c-1.3,0.4-3,0.4-4.2,2.3
		c5.9,1,11.5,2.4,17,4.1c8.4,2.7,16.9,5.2,23.3,12c3.8,4.1,3.3,8.2-1.5,11.1c-3.8,2.3-8.2,3.1-12.5,3.5c-6.8,0.6-13.7,0.9-20.5,0
		c-3.4-0.4-6.9-0.1-10.4-0.9c1.7,2.9,4.6,4.1,7,5.9c6.5,4.9,12.8,9.8,17.7,16.4c1.5,2,3.6,4.4,1.9,6.6c-1.7,2.2-4.4,0.3-6.5-0.6
		c-6.3-2.5-11.5-6.9-16.6-11.3c-3.2-2.7-6.3-5.6-9.7-8.2c3.2,13.4,8.3,26.5,6,40.6c-0.3,0.4-0.7,0.8-1.2,0.8c-4,0.5-5,3.8-6.3,6.7
		c-5.2-0.7-8.2-4.4-11.2-8.1c-6.6-8.2-11.4-17.5-15.3-27.2c-0.4-0.9-0.4-2-2.1-2.3c0,5.5-0.7,10.8-1.5,16.1
		c-0.8,5.4-2.2,10.7-4.1,15.8c-0.2,0.6-0.5,1.1-0.8,1.7c-1,1.7-2.2,4.1-4.1,3.8c-2.5-0.4-2.7-3.3-2.9-5.5c-0.7-10,0.8-19.8,3.4-29.4
		c0.3-1.2,1.2-2.3,0.5-3.8c-1.5,0.2-2.1,1.5-3,2.4c-6.7,6.5-12.6,13.8-20.7,18.8c-3.6,2.2-7.3,4.3-11.5,5.3c-4.5,1-7.6-1.4-7.9-6
		c-0.5-8.4,3.4-15.4,7.2-22.4c3.4-6.3,7.9-11.9,11.5-18.4c-4.5,1.9-9,3.9-13.4,5.8c-6,2.5-12.1,4.4-18.5,5.4
		c-2.2,0.3-4.5,0.3-5.5-2.1c-0.9-2.4,1.3-3.7,2.8-4.8c8.3-5.9,18-9,27.6-12c1.2-0.4,2.4-0.5,3.9-1.8c-14.1-3.8-28.7-5.8-39.8-15.8
		c-0.8-1.2,0.1-1.9,0.8-2.6c5.5-5,11.4-9.6,17-14.5c8.1,0.1,16.2,0.7,24.9,1.6c-8.8-6-16.8-12-23.4-19.6c-0.6-0.5-0.9-1-0.3-1.8
		C294.3,5.5,331,5.2,367.7,4.8z"/>
	<path class="st68" d="M257.5,5.9c0.2,0.5,0.5,1.1,0.7,1.6c3.5,6.1,2.6,14.8-2,18.6c-3.7,4.9-8.8,8.2-13.4,12.1
		c-1.6,1.4-3.2,2.7-4.2,4.6c-2.8,3.7-3.5,7.8-2.3,12.3c0.2,0.7,1.2,1.8,0,2.2c-1.4,0.4-1.4-1-1.7-1.9c-1.7-6-0.3-11.3,3.7-16
		c2.2-2.6,4.9-4.6,7.6-6.6c11.2-8.2,13-13.5,9.4-26.9C256,5.9,256.8,5.9,257.5,5.9z"/>
	<path class="st67" d="M356.8,176.2c-6.7,3-13.5,6-20.6,8.7c2.8,0.7,5.7,1.2,8.5,2c6.3,1.7,12.4,3.7,17.6,7.8
		c4.9,3.8,4.5,8-1.2,10.4c-3.2,1.3-6.7,1.8-10.2,1.9c-6,0.2-12.1,0.1-18.2-0.3c3.7,3.2,7.8,5.8,11.1,9.2c2.2,2.3,4.5,4.6,6.5,7.1
		c0.8,0.9,1.7,2.5,0.6,3.7c-1,1.1-2.5,0.6-3.9,0c-4.3-1.9-8-4.5-11.5-7.6c-2.4-2.1-4.9-4.2-8-6.8c1.3,5.3,2.6,9.8,3.5,14.3
		c1.1,5,2.1,10,0.7,15.1c-1.4,5.4-4.9,6.7-9.3,3.1c-4.1-3.2-6.8-7.6-9.3-12c-1.8-3.2-3.3-6.4-4.9-9.7c-0.4-0.8-0.5-1.9-1.6-1.7
		c-1.2,0.2-0.7,1.4-0.8,2.2c-0.3,6.5-1.6,12.8-3.6,18.9c-0.6,1.8-1.5,4.2-3.3,4.1c-2.2-0.2-2.5-2.9-2.6-4.8c-0.4-6.1,1-12.1,2.2-18
		c0.3-1.2,0.8-2.3,0-4c-4.3,3.9-8,8.3-12.5,11.8c-3.7,2.8-7.3,5.7-12.1,6.1c-4.1,0.3-6.1-2.3-5.3-6.4c1.8-9.2,6.9-16.7,12.3-24
		c0.4-0.6,1.2-1,1.1-2.4c-3,1.3-5.8,2.6-8.7,3.7c-4.9,1.8-9.7,4.1-15.1,3.9c-1.2,0-2.8,0.3-3.2-1.2c-0.4-1.4,0.7-2.5,1.9-3.3
		c5.6-3.9,11.9-6.2,18.3-8.3c1.1-0.3,2.2-0.4,3.2-1.7c-4.2-1.2-8.3-2.4-12.4-3.5c-5.7-1.6-11-3.9-15.2-8.3c-2.6-2.8-2.1-5.8,1.2-7.6
		c3.5-1.9,7.2-2.7,11.1-2.8c6.3-0.1,12.7-0.4,19.5,0.9c-1.5-2.7-3.6-3.5-5.3-4.8c-4.5-3.4-8.7-7-12.2-11.5c-1-1.3-2.1-2.9-0.8-4.3
		c1.2-1.2,2.8-0.3,4.2,0.3c6.2,2.7,10.8,7.5,15.9,11.6c1,0.8,1.7,2.1,3.4,2.7c-2-6.6-4-12.9-4.9-19.5c-0.5-3.7-0.6-7.2,0.4-10.7
		c1.4-5,5.1-5.8,9.1-2.4c7.2,6.1,10.4,14.7,14.7,22.8c0.3,0.5,0.5,1.1,1.2,1.6c0.5-4.6,1-9.2,2-13.7c0.7-3.1,1.6-6.3,2.6-9.3
		c0.5-1.5,1.4-3.4,3.2-3c1.6,0.4,2.2,2.3,2.3,4c0.3,5.6-0.7,11.1-1.8,16.6c-0.4,1.9-1.4,3.7,0.3,6.8c2.3-2.7,4.4-5.6,6.9-8.2
		c3.3-3.4,7-6.3,11.2-8.5c2.6-1.4,5.3-2.1,8.2-1.8c0.4,1.1-0.4,1.8-1,2.6c-2.6,3.8-2.4,4.8,1.3,7.9c0.5,0.4,0.9,0.8,1.1,1.4
		c0.5,2.2-0.7,3.8-1.6,5.6c-2.3,4.9-5.5,9.1-8.6,13.6c6.9-2.9,13.6-6.2,21.1-6.8C359.3,171.8,359.6,173.6,356.8,176.2z"/>
	<path class="st66" d="M356.8,176.2c2-2.6,1-4.7-1.1-6.6c-0.7-0.7-0.6-1.6-0.3-2.5c1.9-4.6,3.9-9.2,7.6-11.6
		c-4,2.1-9.3,2.2-14.6,2.8c-1.3,0.1-2.5-0.2-3.4-1.2c-0.2-0.5-0.4-0.9-0.3-1.4c1-3.6,0.8-7.1-0.3-10.6c4.7-3.4,10.3-3.1,16-4.2
		c-6-4.2-13.2-6.7-16.3-13.9c0-5.7,1.4-7.1,7.5-7.6c6.7,1.8,12.1,5.7,16.9,10.6c-2.2-5.9-3.3-12-3.9-18.1c-0.1-1.1-0.3-2.2-0.3-3.3
		c0-1.7,0.5-3.3,2.1-4c1.5-0.7,2.9,0,4.1,1c6.4,5,8.3,12.1,9.5,19.6c0.1,0.5,0.1,1,0.2,2.2c2.4-4.9,4.8-9.1,7.6-13
		c1.7-2.4,3.5-4.6,5.7-6.4c2.8-2.2,5.4-1,5.8,2.5c0.8,6.4-1.4,12-4.7,17.3c-1,1.6-2.1,3.1-3.5,5.2c5.6-2,10.7-3.3,15.9-4
		c2.1-0.3,4.2-0.4,6.3-0.4c1.7,0,3.3,0.5,4,2.2c0.6,1.6-0.3,2.9-1.3,4c-4.1,4.9-9.7,7.3-15.7,8.7c-1.7,0.4-3.4,0.6-6,1.1
		c5.1,2.5,9.7,4.7,13.6,7.9c1.8,1.5,3.6,3.1,5.3,4.7c1.3,1.2,2,2.7,1.3,4.4c-0.6,1.5-2.2,1.9-3.7,2c-6.2,0.5-11.8-1.5-17-4.7
		c-1.2-0.7-2.3-1.5-3.9-2.5c1,4.4,2,8.3,2.8,12.3c0.5,2.6,0.6,5.2-0.1,7.8c-0.7,2.6-2.1,4.7-4.8,5.2c-2.9,0.5-5.1-1.2-6.6-3.5
		c-2.6-3.9-3.9-8.3-4-13c0-1.3,0-2.7-0.4-4.1c-2.5,3.5-4.4,7.4-7.1,10.7c-1.7,2-3.4,4-5.8,5.2C361.5,178.2,359.1,177.9,356.8,176.2z
		"/>
	<path class="st69" d="M344.4,145c3.7,3.7,1.7,7.8,0.8,11.8c-0.1,0.2-0.3,0.3-0.5,0.3c-0.2,0-0.3-0.1-0.3-0.2
		c-6.6-4.1-5.5-6.9-0.8-12C343.8,145,344.1,145,344.4,145z"/>
	<path class="st70" d="M296.2,50.9c-0.8-10.7,10.1-21.3,21.4-21.2c11.8,0.2,21.1,9.5,21.2,21.1c0.1,11.4-9.2,21.1-21.1,21.1
		C305.5,71.9,296.3,63,296.2,50.9z"/>
	<path class="st71" d="M256.2,26.1c3.8-5.9,3.3-12.2,2-18.6c1.4-0.5,1.5,0.9,2,1.5c5.9,6.1,12.5,11.3,19.5,16.1c1,0.7,2.6,1,3,3.1
		c-5.3-0.3-10.5-0.1-15.5-1C263.5,26.4,259.7,27.9,256.2,26.1z"/>
	<path class="st70" d="M307.5,207.4c-7.3,0.8-15-6.5-15.1-14.8c-0.1-8.3,7.5-15.3,14.8-15.3c8.3,0,15.7,6.9,15.6,14.8
		C322.8,200.4,317.1,207.6,307.5,207.4z"/>
	<path class="st71" d="M344.4,156.9c0.3,0,0.5-0.1,0.8-0.1c4,0.9,9.6,0.2,20-2.8c-4.4,4.7-8.3,9.3-9.5,15.5
		c-3.8,1.2-7.6,2.2-11.3,3.6c-3.7,1.4-7.3,3-11.4,4.7c1.2-3.2,3.5-5.4,5.1-8.1C340.6,165.7,343.6,161.8,344.4,156.9z"/>
	<path class="st57" d="M374.2,142.5c0.2-2.1,1.5-3.7,4.1-3.8c2.5-0.1,5.6,2.3,5.6,4.5c0,2.9-1.8,4.6-4.5,5.1
		C377.1,148.7,374.4,145.7,374.2,142.5z"/>
</g>
<g>
	<path class="st72" d="M463.4,208c-5.6-5.3-10-11.3-11-19.2c2.6,0.3,1.9,3.2,3.4,4.2c-3.8-7.2-4-14.4,0.6-21.6
		c0.5-0.8,1.3-1.6,0.7-2.7c7.8-13.9,31.4-18,43.4-3.9c4,4.7,4.9,10.1,5.7,15.8c-1.4,13-8.8,21.7-21.8,25.5c-1.4,0.4-2.9,0.8-4.2,1.4
		c-5,0.1-10.1-0.4-15,1.2C464.4,208.7,463.8,208.5,463.4,208z"/>
	<path class="st73" d="M463.4,208c0.4,0,0.9,0.1,1.3,0.1c4.8,0.8,9.6,2.2,14.6,1.8c1.3-0.1,2.4,0.5,3.4,1.3c2,1.6,4,1.7,6-0.2
		c0.3-0.2,0.7-0.4,1-0.4c12.6,8.9,12.8,24.9,7.7,34.3c-4.2,7.8-10.7,12.7-20.2,13.1c-8.3,0.3-15.4-1.7-21.2-7.9
		c-3-3.2-4.2-7.1-5.2-11c-1.9-7.1-1.9-14.2,2-20.8C455.4,214,459.4,211,463.4,208z"/>
	<path class="st74" d="M480.5,207c0.1-1.1,0.9-1.2,1.8-1.5c12.9-3.3,21.5-10.6,23.5-24.4c0-0.2,0.3-0.4,0.4-0.6
		c1.4,12.1-3.9,20.6-14.2,26.4c-1.6,0.9-2.7,1.7-2.3,3.7c0,0-0.2,0-0.2,0C486,210.7,483.3,208.7,480.5,207z"/>
	<path class="st75" d="M480.5,207c3.4,0.4,6.1,2.4,9,3.7c-1.5,3.3-4.1,4.3-6.6,2c-1.8-1.7-3.6-1.9-5.8-1.8
		c-4.4,0.2-8.7-0.3-12.5-2.7C469.8,205.7,475.1,206,480.5,207z"/>
	<path class="st76" d="M459.1,197.2c4.5,4.1,10.1,5.3,16,6.6C470.8,206.1,462.1,202.6,459.1,197.2z"/>
	<path class="st77" d="M476.4,204.1c2.6-1.1,5.4-0.4,8.1-1.1C482,205.4,479.3,205.3,476.4,204.1z"/>
	<path class="st78" d="M469.7,224.4c2,0,3.7,0.9,3.5,3.1c-0.2,2.1-1.7,3.5-4,3.6c-2,0-3.3-1.1-3.3-3.1
		C465.8,225.6,467.2,224.5,469.7,224.4z"/>
	<path class="st79" d="M482.4,228.3c0.1,1.3-1.3,2.4-3.2,2.4c-2.1,0-3.5-1.7-3.5-3.7c0-1.8,1.4-3.3,3.4-3.4
		C481.5,223.5,482.3,225.2,482.4,228.3z"/>
	<path class="st80" d="M476.5,235.4c-0.2-2.3,1.2-3,3.2-3c2.5,0,3.3,1.7,3.4,3.6c0.1,1.8-1,3.1-2.9,3.1
		C478,239,476.3,238.1,476.5,235.4z"/>
	<path class="st80" d="M473.5,236.4c-0.4,1.8-0.8,3.7-3.2,3.8c-2,0.1-3.3-0.9-3.5-3c-0.2-2.2,0.8-3.5,3.1-3.7
		C471.9,233.3,473.1,234.3,473.5,236.4z"/>
</g>
<g>
	<path class="st2" d="M114.3,330.6c1.2-5.9,2.5-11.9,3.7-17.8c1.6-7.6,3.3-15.2,4.9-22.9c0.4-2,1.3-3.2,3.3-4
		c18.5-7.7,36.9-15.5,55.4-23.3c0.9-0.4,1.8-1.3,2.7-0.5c0.9,0.8,0.3,1.8,0.1,2.8c-0.7,4.7-0.4,9.4-0.8,14.1
		c-0.9,10.8-1,21.6-1.4,32.4c-0.2,5.4-1.4,9.8-6.3,13.7c-12.6,9.7-24.4,20.4-36.5,30.7c-1.7,1.5-3.1,2.3-5.1-0.1
		c-5.9-7.1-12.1-13.9-18.2-20.7C115.2,333.6,113.8,332.5,114.3,330.6z"/>
	<path class="st2" d="M212.4,274.3c-1.3-0.1-2.3-0.8-3.2-1.4c-6.5-4.1-13-8.3-19.5-12.4c-1.9-1.2-2.1-2.4-2.1-4.8
		c-0.1-8.1,4.2-12.2,11-15.2c4.5-2,8.8-4.7,12.9-7.4c1.9-1.2,3-0.9,4.5,0.6c6.4,6.6,12.9,13.2,19.3,19.7c0.9,1,1.5,1.8,1,3.3
		c-0.8,2.5-1.3,5-2,7.5c-0.2,0.8-0.5,1.8-1.4,2.1C226,269.1,219.2,271.7,212.4,274.3z"/>
	<path class="st2" d="M109.8,233.4c6.7-0.6,12.9-1.5,19.1-1.1c3.4,0.2,6-1.2,8.6-2.9c4.9-3.2,9.8-6.4,14.7-9.5
		c1.3-0.8,2.4-1.4,4.1-0.9c16.9,4.3,33.8,8.4,50.6,12.5c0.5,0.1,1,0,1.3,1.1c-6.6,3.8-13.3,7.8-20.1,11.5c-2.4,1.3-5.1-0.3-7.7-0.5
		c-14.5-1.6-29-3.6-43.6-5.4c-7.6-1-15.3-1.8-22.9-2.8C112.8,235.1,111.4,234.9,109.8,233.4z"/>
	<path class="st2" d="M211.3,229.4c-11.3-2.3-22.9-3.3-33.1-7.8c-13.2-5.9-25.6-13.6-38.3-21c4-0.9,8,0.1,11.8,0.3
		c8.8,0.6,17.5,1.7,26.3,2.4c3.6,0.3,6.6,1.2,9.3,3.8c6.9,6.6,14.1,12.9,21.2,19.4C209.5,227.4,210.3,228.4,211.3,229.4z"/>
	<path class="st2" d="M140.2,358.4c3.8-4.5,8.4-7.2,12.2-10.9c2.1-2.1,4.6-3.7,6.8-5.7c2.1-1.9,3.7-2.6,6.3-0.4
		c7.6,6.4,15.5,12.4,23.2,18.6c0.4,0.4,0.8,0.9,1.6,1.9C173.4,360.7,157.1,359.6,140.2,358.4z"/>
	<path class="st2" d="M187,269.9c4.5,21.1,9.1,42.3,13.8,64.3c-6-4.7-11.2-9-16-13.8c-1.6-1.6-1.1-3.9-0.7-5.7
		c1.1-5.3,0.6-10.7,1-16C185.7,289.2,186.2,279.7,187,269.9z"/>
	<path class="st2" d="M99,299.8c0.8-5.8,1.2-10.8,6.8-13.7c3.2-1.6,5.9-4.1,8.7-6.3c1.6-1.3,2.5-0.9,3.6,0.6
		c2.5,3.4,3.7,6.9,2.3,11.3c-1.3,3.8-1.8,7.9-2.5,11.9c-0.4,2.4-1.3,3.5-3.9,2.6c-4-1.3-8.1-2.4-12.1-3.4
		C99.9,302.3,98.7,301.4,99,299.8z"/>
	<path class="st2" d="M195.4,298.8c-2.7-12.7-5.1-24.2-7.6-36c3.6,1,5.9,3.3,8.6,4.8c4,2.3,7.8,4.8,11.7,7.2c0.8,0.5,2,1,1.2,2.2
		C205,284,200.5,290.9,195.4,298.8z"/>
	<path class="st81" d="M196.5,343c-3.1,1.7-5.3,0-7.6,0.1c-4.6,0.2-9.2,0.1-13.8,0.2c-2.4,0.1-4.3-0.6-6.2-2.1
		c-5.7-4.5-5-3.3-0.2-7.3c5-4.2,3.6-4.6,9.8-1C184.3,336.3,190.2,339.5,196.5,343z"/>
	<path class="st71" d="M214.4,257.7c-2.8-0.2-4.6-1.4-4.8-4.2c-0.2-3,1.4-4.6,4.3-4.8c2.8-0.2,4.5,1.2,4.6,4.1
		C218.8,255.7,217.2,257.2,214.4,257.7z"/>
</g>
<path class="st82" d="M862.4,341.2c-1.3,0.9-2.9,0.7-3.7,2.4c-0.5,0.9-1.3,0.6-1.8-0.1c-0.5-0.8,0-1.6,0.7-1.7
	C859.2,341.4,860.8,341.3,862.4,341.2z"/>
<g>
	<path class="st83" d="M202.8,6.4c-3,0.4-0.5,3.7-2.6,4.7c-1.5,0.8-4-2.2-4.8,1.4c-0.2,0.9-2.4,1-2.5,0.4c-0.8-2.9-3.7-1.3-5.2-2.7
		c-1.1-1.6-0.7-2.8,0.8-3.7C193.3,6.5,198.1,6.4,202.8,6.4z"/>
	<path class="st84" d="M188.6,6.5c-0.6,1.2-1,2.4-0.8,3.7c-0.3,2.4-2.8,3.2-3.5,5.3c-1.1,1-2.3,2.2-3.8,1.3
		c-1.2-0.7-1.4-2.2-0.7-3.6c1.5-2.4,2.7-5,5.1-6.7C186.1,6.5,187.3,6.5,188.6,6.5z"/>
	<path class="st68" d="M72,66.8c-9.7-10.7-27.6-10-36.4-0.2c-3.9,4.4-5.4,9.7-6,15.4c-1.2,12.5-4.1,24.5-11.4,35.1
		c-3.5,5-7.7,9.1-12.9,12.3c-0.6,0.4-1.5,1.4-2.2,0.2c-0.4-0.8,0.4-1.3,1-1.7c16.1-10.6,21.5-26.7,23.2-44.7
		c1.2-12.1,6.1-21.4,18.4-24.9c10.6-3,20.2-0.7,27.9,7.7C73.5,66.6,73,67.2,72,66.8z"/>
	<path class="st85" d="M157.5,50.9c-0.4-2.2,1.9-4.7-0.8-6.7c-0.2-0.1,0.1-1.3,0.2-1.3c2.9-0.3,3.1-4.9,4.1-4.5c3,1.2,5-1.3,7.5-1.2
		c1.6,0.6,1.7,1.8,1.4,3.2c1.3-1.1,2.4-0.9,3.2,0.6c0.1,2.1-2,4.4,0.8,6.3c0.4,0.2-4.4,6.6-4.7,6.3c-2.7-2.5-4.7,1.4-7.2,0.7
		C160.6,53.1,158.9,52.2,157.5,50.9z"/>
	<path class="st86" d="M113,92.3c-0.7,1.9-3.9,2.5-3,5.4c0,0.1-1,0.9-1,0.8c-3-2.7-5.2,3.4-6.7,1.4c-1.7-2.4-4.6-1.2-6-3.3
		c0.4-2.3-2.1-3.9-1.6-6.2c0.7-1.8,3.9-2.1,2.8-5c-0.1-0.2,0.9-0.9,1-0.9c3,2.3,5.6-3.3,6.9-1.4c1.7,2.5,4.3,1.3,5.7,3
		C111.3,88.3,112.9,90.1,113,92.3z"/>
	<path class="st87" d="M84.9,92.7c-2.3,0.3-4.6-2.1-7.1,0c-0.5,0.4-1.5-0.4-1.7-1.1c-0.4-1.6-1-2.6-2.8-2.9
		c-0.7-0.1-1.2-1.6-0.8-1.8c3.6-1.6-3.8-7.4,3-7.6c0.2-1.4,0-3,1.9-3.5c1.6-0.4,2.5,0.4,3.1,1.8c1.2,0.9,1.1-0.8,1.8-1
		c1.8-0.5,3.5-0.4,3.3,1.9c-0.1,1.5-0.2,1.9,1.5,1.6c1.2-0.3,2.3,0.8,1.7,1.7c-1.7,2.5,0.3,4.7,0.1,7c0,0.4-0.2,1-0.4,0.9
		C86,89.2,86,91.5,84.9,92.7z"/>
	<path class="st88" d="M117.3,81.9c0-1.3,1-2.8,1-3.6c0-3.2,1.9-4,4-5.8c2-1.7,2.5-3.6,4.7-0.6c1.2,1.5,2.3-1.6,3.7-0.4
		c1.6,1.8,2.3,4.1,4,5.7c0.2,0.8,0.2,1.7-0.4,2.1c-1.5,0.9-2.8,1.7-0.7,3.3c0.1,0,0,0.2,0,0.4c0,1-0.9,2.1-1.4,1.8
		c-3.2-2.2-3.7,7-7.3,1.7c-0.6-0.9-0.7-1-1.3-0.2c-0.7,0.9-1.7,1-2.7,0.5C119.1,85.7,119.1,83.1,117.3,81.9z"/>
	<path class="st87" d="M155.2,61.2c0.2,1.2,0.2,2.2-0.9,3c-0.2,0.1-0.5,0.1-0.7,0.3c-1.4,1.2,1.8,2.9-0.5,4.3
		c-1.2,0.7-3.4-1.1-3.9,1.9c-0.3,1.9-2.9,2.1-3.7,0.4c-1.2-2.6-1.9-0.5-2.8-0.2c-1.6,0.6-2.6-0.1-2.8-1.7c-0.1-1.3-1-2.1-1.7-3.1
		c-0.6-1.2-1.3-2.6,0.2-3.6c1.1-0.7,0.9-1.5,0.6-2.5c-0.3-0.9,0.4-2.4,0.7-2.2c3.8,2,4-5.1,6.3-3c2.2,2,3.9,0.6,5.7,1.1
		C153.1,57.4,153.6,59.7,155.2,61.2z"/>
	<path class="st89" d="M179.7,13.3c1.1,2.7,1.1,2.7,4.5,2.2c0.7,1,1.2,2,0.4,3.1c-0.9,1.2-0.5,1.7,0.7,2.1c0.8,0.2,1.6,1,1.3,1.6
		c-1,2.3-2.3,4.5-3.5,6.7c-2.9-1.6-4.2,1.6-6.4,2.1c-2.2-0.4-4.1-1.4-5.8-2.9c-0.2-2.1,0.9-4.2-1.6-6.3c-1.1-0.9,2.9-3.9,2.8-6.7
		C175.3,16.9,176.9,12.8,179.7,13.3z"/>
	<path class="st90" d="M138.1,66c1.4,0.3,3.4-0.2,2.4,2.5c-0.5,1.5,0.7,2.1,2.1,2.3c-2.5,2.2-5.7,3.6-7.7,6.4
		c-2-1.3-3.1-2.9-4.1-5.7C133.6,70.1,135.7,68,138.1,66z"/>
	<path class="st91" d="M80.5,77.6c-2.8-2.8-4-0.8-5,1.7c-1.4-3.2-2-6.7-4.2-9.5c-0.9-1.2,0.4-2,0.7-3c0.6-0.3,1.2-0.6,1.7-1
		c3.5-0.7,2.7,2.8,3.8,4.3C79.2,72.2,80.4,74.8,80.5,77.6z"/>
	<path class="st92" d="M170.9,28.1c2.4,0,4.4,1,5.8,2.9c-0.7,0.8-2.4,1.1-0.9,2.7c0.5,0.5,0.5,1.8-0.1,2c-2.5,1-1.6,3.6-2.7,5.3
		c-2.3-0.4-4.1-1.3-4.6-3.8C170.3,34.4,171.1,31.4,170.9,28.1z"/>
	<path class="st93" d="M117.3,81.9c3.4,0,2.7,3.1,3.8,4.9c-2.7,1.9-5.3,3.7-8,5.6c-1.2-1.9-3.7-3.4-1.8-6.2
		C113.2,84.7,115.2,83.3,117.3,81.9z"/>
	<path class="st94" d="M84.9,92.7c-0.5-3.2,2.1-3.2,4-4c1.8,0.9,3.6,2.3,5.9,1.6c0.1,0.5,0.2,1.2,0.5,1.3c3,1.1,1.9,3,1.2,4.9
		c-2.8-1.2-6.5,0.4-8.5-3.1C87.3,92.4,85.7,94,84.9,92.7z"/>
	<path class="st93" d="M155.2,61.2c-3.2-0.5-3-3.2-3.5-5.4c3-0.4,4.2-2.9,5.8-4.9c2.2,0.4,4.3,0.8,4.5,3.5
		C159.4,56.4,156.7,58.3,155.2,61.2z"/>
	<path class="st95" d="M165.2,48.6c-1.9-0.2-2.5-1.3-2.5-2.9c0-1.7,1-2.5,2.7-2.3c1.5,0.2,2.6,1.2,2.4,2.7
		C167.6,47.7,166.4,48.4,165.2,48.6z"/>
	<path class="st96" d="M101.2,91.2c0.4-1.5,1.2-2.5,2.9-2.4c1.6,0.2,2.5,1.2,2.4,2.8c-0.1,1.6-1.1,2.5-2.8,2.4
		C102.1,93.9,101.4,92.7,101.2,91.2z"/>
	<path class="st97" d="M78.3,84.9c0-1.8,0.8-2.9,2.3-3.1c1.6-0.2,2.6,0.9,2.8,2.3c0.2,1.5-0.6,2.6-2.3,2.8
		C79.5,87.1,78.5,86.4,78.3,84.9z"/>
	<path class="st95" d="M128.6,79.1c-0.1,1.5-1,2.6-2.5,2.6c-1.6,0.1-2.6-1-2.7-2.5c-0.1-1.6,0.8-2.5,2.5-2.6
		C127.5,76.6,128.4,77.3,128.6,79.1z"/>
	<path class="st98" d="M143.4,63.3c0-1.7,1-2.5,2.6-2.6c1.6-0.1,2.6,0.7,2.7,2.3c0.1,1.6-0.7,2.6-2.3,2.8
		C144.6,66,143.8,64.8,143.4,63.3z"/>
	<path class="st99" d="M177.9,24.6c-1.6-0.1-2.6-0.8-2.7-2.4c-0.1-1.5,0.8-2.6,2.4-2.7c1.7-0.1,2.8,0.9,2.8,2.7
		C180.5,23.7,179.4,24.5,177.9,24.6z"/>
</g>
<g>
	<path class="st1" d="M430.2,85.1c-6.9-13-5.4-25.7,3-37.1c9.2-12.6,22.7-17.5,37.6-14.1c14,3.1,22.1,11.2,24.3,24.6
		c0.2,1.1,0.5,2.2,0.7,3.3c-0.3,5.6-0.3,11.1-3.3,16.2c-7,12.2-17.7,18.7-31.3,20.3c-4,0.5-8.2,0.5-12.3-0.2
		C440.6,96.5,434.4,92.2,430.2,85.1z"/>
	<path class="st100" d="M430.2,85.1c2.7,2.4,4.7,5.5,7.7,7.4c10.8,6.9,22.4,6.4,33.7,2.2c12.3-4.6,20.5-13.3,23.4-26.5
		c0.5-2.2-0.4-4.5,0.8-6.5c1.1,10.2-0.9,19.4-7.5,27.6c-9.7,11.9-30.9,17.2-44.9,10.9C436.7,97.1,433,91.4,430.2,85.1z"/>
	<path class="st101" d="M474,72.4c-0.3,2.3-1.6,3.9-4.5,3.9c-2.9,0-4.9-2-4.8-5.3c0.1-3,2.4-4.3,4.8-4.9
		C471.6,65.6,473.9,68.8,474,72.4z"/>
	<path class="st102" d="M471.9,53.6c-0.1,3.1-2.1,4.4-4.6,4.5c-2.5,0.1-4.8-0.9-5.1-3.8c-0.3-2.2,3.3-5.9,5.4-5.7
		C470.7,48.8,471.5,51.1,471.9,53.6z"/>
	<path class="st103" d="M454.7,81c-2.7,0.1-4.9-2.1-4.9-4.5c0-2.5,2.6-5.2,4.9-5.2c2.8,0.1,4.4,1.7,4.6,4.4
		C459.5,78.4,457.2,80.9,454.7,81z"/>
	<path class="st104" d="M449.3,62.4c-3.1,0.1-5.2-1.8-5.2-4.9c-0.1-2.9,1.3-4.7,4.3-4.9c2.7-0.2,5.4,2.6,5.4,5.5
		C453.9,60.5,452.1,62.3,449.3,62.4z"/>
	<path class="st105" d="M466.9,71.6c-0.2-2,0.2-2.9,1.9-3c1.9-0.1,2.7,1.2,2.9,2.7c0.2,1.5-0.5,2.6-2.3,2.7
		C467.4,74.1,467.2,72.5,466.9,71.6z"/>
	<path class="st106" d="M466.7,56c-1.5-0.1-2.5-0.7-2.4-2.3c0.2-1.6,1-2.9,2.8-3c1.7,0,2.4,1.1,2.5,2.7
		C469.6,55.4,468.2,55.8,466.7,56z"/>
	<path class="st107" d="M454.7,79.3c-1.6-0.3-2.7-1.1-2.8-2.9c-0.1-2,1-3.2,2.8-3.3c1.5-0.1,2.4,1.1,2.5,2.7
		C457.4,77.6,456.6,78.8,454.7,79.3z"/>
	<path class="st108" d="M449,60.9c-2.3-0.1-3.2-1.7-3.3-3.7c-0.1-2,1.4-2.9,3.1-2.9c2.3,0.1,2.9,2.2,3.1,4
		C452.2,60.1,450.7,60.7,449,60.9z"/>
</g>
<g>
	<path class="st109" d="M551,56.9c4.1-7.3,10.3-11.8,18.5-12.9c8-1.1,15.7-0.5,22.5,5.2c4.6,3.9,7,8.5,7.9,14.2
		c0.2,1.1,0.4,2.2,0.6,3.3c-1.3,17-12.4,27.2-29.8,27.6c-2.6,0-5.2,0.3-7.8-0.3c-5-1.2-9.3-3.5-12.2-7.9c-2.1-2.9-3.8-5.9-3.8-9.7
		c2.5,0.2,2,2.8,3.7,4.4c-4.1-7.9-4.2-15.3,0.4-22.5C551.4,57.8,551.3,57.3,551,56.9z"/>
	<path class="st110" d="M550.8,86c12.6,9.5,26.7,9.9,39,0.9c6.2-4.6,9.8-10.7,10.3-18.5c0-0.6,0.3-1.1,0.5-1.7
		c2.9,18.2-12.3,30.6-27.4,31.2C563.3,98.2,555.1,96,550.8,86z"/>
	<path class="st111" d="M570.9,50.2c2.3-3.4,5.2-3.1,7.8-2.7c8,1.3,15.4,8.3,16.5,16.2c1.2,8.1-1.9,14.8-8.5,19.8
		c-6,4.6-12.8,6.4-20.3,5.2c-15.4-2.6-19-18.8-11.7-30.1c3.4-5.3,8.2-8.6,14.7-9.5c-1.7,0.9-3.4,1.7-5.1,2.6
		c-10.6,5.9-14.5,18.1-9,28c2.2,3.9,5.6,5.8,9.7,6.9c7.7,2.1,19.6-1.9,24.2-8.3c4.9-6.7,5.7-13.9,0.9-20.8
		C585.9,51.4,579.4,48.8,570.9,50.2z"/>
	<path class="st112" d="M563.8,58.1c5-0.7,9.8-2.7,15-2.5c1,0,2,0.1,2.9,0.3c1.4,0.5,3,1.2,3,2.9c0.1,1.5-1.3,2.3-2.5,2.9
		c-6,3-12.5,4-19.1,3.7c-3.8-0.1-4.4-2.2-2.2-5.9C561.2,57.8,562.2,57.4,563.8,58.1z"/>
	<path class="st112" d="M568.6,73c4.9-1.1,9.7-3.1,14.9-2.6c1.7,0.2,3.5,0,4.1,1.8c0.6,1.7-1.2,2.7-2.3,3.5
		c-6,3.8-12.7,4.8-19.6,4.6c-1.1,0-2.6-0.5-2.9-2c-0.4-1.7,1-2.4,2.1-3.1c0.7-0.5,1.4-1,2.1-1.5C567.4,73.1,567.8,72.6,568.6,73z"/>
	<path class="st113" d="M553.6,84.8c4.4,2.8,9,5.1,14.3,5.5c0.6,0,1.4,0.4,1.2,1.1c-0.2,1-1.3,1.2-2.1,1
		C561.8,91.2,557,89.3,553.6,84.8z"/>
	<path class="st113" d="M568.6,73c-0.5,0.3-1,0.5-1.5,0.8c-2.9,0-4.7,1.9-6.3,4.2c-0.2-3.3,5.1-7.4,7.8-6.3
		C568.8,71.8,568.6,72.6,568.6,73z"/>
	<path class="st114" d="M563.8,58.1c-1.1,0.2-2.1,0.7-2.9,1.5c-1.8,0-2.4,1.8-3.8,2.9c0.3-2.7,4.3-6.7,6.2-6.5
		C565.2,56.2,564,57.3,563.8,58.1z"/>
	<path class="st105" d="M561.2,62.9c2.9-3.9,7.2-3.9,10.9-4.7c2.7-0.6,5.7-0.3,8.5-0.4c0.7,0,1.6,0,1.8,0.9c0.2,0.9-0.6,1.3-1.2,1.7
		c-2.8,1.7-6.1,2.3-9.2,2.7C568.6,63.5,565,65.1,561.2,62.9z"/>
	<path class="st105" d="M565.4,77.8c5.6-4.1,11.9-5.8,18.7-5.7c0.6,0,1.4,0.2,1.4,0.9c0,0.5-0.6,1.1-1,1.4c-1.9,1.5-4.2,2.1-6.5,2.7
		C573.8,78.2,569.7,78.6,565.4,77.8z"/>
</g>
<g>
	<path class="st115" d="M958.2,355.4c-0.1,4.5-2.9,7.7-7.4,8.3c-5,0.6-10,0.5-14.7-1.7c-3.3-1.5-6.5-1.9-10.1-1
		c-3.1,0.8-6.4,0.7-9.6-0.4c-2-0.7-4-1-3.9-4c0-2.4-2.6-2.4-4.1-2.3c-3.3,0.2-5.7-1.3-8.2-2.9c-1.1-0.7-2.1-1.4-1.9-2.9
		c0.2-1.5,1.5-2,2.6-2.3c1.6-0.5,3.2-0.4,4.8,0c2.8,0.8,5.6,1.4,8.2,2.5c6.2,2.6,12.4,3.7,18.7,0.5c1.2-0.6,3-1.2,3.9-0.7
		c4,2,5.4-0.9,6.9-3.3c4-6.8,9.4-11.9,17.2-14.1c1-0.3,1.7-0.9,2.3-1.8c9.1-14.1,19.6-27,31.7-38.6c9.5-9.1,20.2-16.5,30.8-24.3
		c0.9-0.7,1.9-1.2,3-1.6c3.2-1.3,4.3-0.6,5,3c0.9,1.8-0.3,3.1-1.2,4.4c-10,13.2-20.1,26.3-31.4,38.5c-3.4,3.6-7.3,6.8-10.7,10.4
		c-0.8,0.9-1.9,1-2.9,1.5c-6.2,4.7-12.3,9.5-18.6,14.1c-1.3,0.9-1,1.7-0.8,2.8c0.9,6.2-2,10.7-6.8,14.2
		C960.1,354.3,958.9,354.4,958.2,355.4z"/>
	<path class="st116" d="M987.1,322.6c14.8-13.4,27.6-28.6,39.4-44.6c2.4-3.3,5.7-6,6.9-10.1c2.7,1.5,1,3.3,0.1,4.6
		c-3.7,5.3-7.5,10.5-11.5,15.6c-8.7,11.2-17.8,22.1-27.9,32.1C992.1,322,990.3,324.3,987.1,322.6z"/>
	<path class="st117" d="M958.2,355.4c-0.4-0.3-0.4-0.8,0-0.9c6.1-3.1,8.9-8.4,9.6-15c0.8,0.1,1.4,0.4,1.4,1.3
		C969.7,347.2,964.5,354.1,958.2,355.4z"/>
	<path class="st118" d="M1031.6,268c-2.7,5.8-7.2,10.4-11,15.4c-7.4,9.8-15.3,19.2-23.9,28c-2.4,2.5-5.1,4.7-7.6,7.2
		c-1.3,1.3-2.6,1.4-4,0.4c-3.1-2.2-5.3-4.8-5.2-8.9c4-5.6,8.9-10.5,13.8-15.1c10.1-9.5,20.8-18.2,32.7-25.4
		C1028.1,268.6,1029.5,267,1031.6,268z"/>
	<path class="st119" d="M966,339.5c0.5,6.1-3,10.1-7.7,13c-4.3,2.7-9.2,3.5-14.5,2.9c10.4-2.6,15.1-5,18.3-9.7
		c-4,2.2-7.1,4.6-10.7,6c-3.6,1.3-7.4,1.9-11.9,2.5c3.2-1.9,6.5-2.3,8.8-5.1c-2.6-0.4-4.1,1.8-6.5,1.8c0.5-3.3,3.3-4.9,4.7-7.3
		c3.1-3.8,7.4-6,11.7-8.1c1.5-0.7,2.8-0.8,3.8,0.8C962.9,337.9,964.7,338.3,966,339.5z"/>
	<path class="st120" d="M982.5,320.1c-2.6-1.2-3.5-3.7-5.1-5.7c-0.1,4.3,3.5,6.2,6.4,9c-4.2,3.1-8.2,6.2-12.4,9.1
		c-3.1,2.2-3.8-1.4-5.5-2.8c-0.8,2.5,1.4,3.3,2.1,4.9c-1.4,1.4-2.4,0.4-3.3-0.7c-1.5-1.7-1.1-3.6,0-5.2c3-4.4,6.1-8.7,9.3-13
		c1.2-1.6,2-3.4,4.1-4.8C979.1,314.4,980.6,317.3,982.5,320.1z"/>
	<path class="st121" d="M1031.6,268c-7.6,3.2-14,8.4-20.5,13.3c-10.3,7.8-19.7,16.7-28.4,26.2c-0.8,0.9-1.8,1.7-2.7,2.5
		c0.1-4.1,3.7-6,6-8.5c12.3-13.4,26.4-24.7,41.7-34.6C1029.5,265.8,1031.2,264.7,1031.6,268z"/>
	<path class="st122" d="M966,339.5c-2.1,0.4-3.8-0.6-4.6-2.3c-0.8-1.8-1.5-1.6-2.9-0.9c-4.2,2.1-8.2,4.4-11.9,7.3
		c3-5.5,7.8-8.7,13.5-10.8c1.1-0.4,2-0.8,2.6,0.8C963.4,335.7,966.2,336.7,966,339.5z"/>
	<path class="st123" d="M950.5,356.8c-6.2,1.1-12.4,1.5-19.6,0c4-1.8,7,0,10,0.1C944.1,357,947.3,356.8,950.5,356.8z"/>
	<path class="st124" d="M1012.6,283c-4.3,6.6-9.7,11.5-15,16.5c-3.5,3.3-7.2,6.5-10,10.5c-0.3,0.4-0.7,0.7-1,1.1
		c-1.1,1.2-2.6,2.8-4.1,1.5c-1.8-1.6,0.4-2.8,1.3-3.9c7.4-8.3,15.8-15.5,23.9-23.1C1009,284.5,1010.2,283.2,1012.6,283z"/>
	<path class="st125" d="M1006.8,296.5c-5.1,7.2-11.3,13.4-17.3,18.5C994.9,309.2,1000.8,302.9,1006.8,296.5z"/>
</g>
<g>
	<path class="st126" d="M45.8,219.5c-0.7,2.1-0.6,4.3-1.1,6.4c-0.3,1.7,0.2,2.8,2.1,3.2c1.1,0.2,2,0.8,2.2,2.1
		c0.1,1.3-0.4,2.2-1.6,2.8c-0.5,0.3-1,0.7-1.5,0.9c-1.3,0.4-1.7,1.3-1.6,2.7c0.1,1.4,0.1,2.8-0.3,4.2c-0.2,0.9-0.2,1.9,1.3,1.4
		c0.7-0.2,1.5-0.1,2.3-0.1c1.2,0,2.2,0.3,2.7,1.5c0.4,1.1,0,2.1-0.7,3c-1.2,1.4-2.7,2.4-4.3,3.1c-0.5,0.2-1.5,0.3-1.2,1.2
		c0.2,0.8,1.1,0.4,1.7,0.5c4.6,0.2,9.2,0.6,13.6,2.3c6.8,2.8,12,9.1,11.7,16.9c-0.1,2.2-0.1,4.3-0.5,6.5c-0.8,3.9-2.8,7-5.8,9.5
		c-1.6,1.3-3.2,2.8-4.3,4.6c-1.2,1.9-1.3,3.8-0.3,5.8c1.2,2.3,2.8,4.3,4.2,6.5c3.9,5.9,3.5,10.1-1.6,15.1c-0.9,0.9-1.5,1.4-0.2,2.6
		c2.2,2,2.5,4.7,1.6,7.5c-0.3,0.8-0.6,1.6-1.6,1.3c-1-0.3-0.8-1.2-0.5-1.9c0.7-1.9,0.6-3.7-0.8-5.2c-1-1-1.9-1.6-3.5-0.6
		c-3.7,2.5-7.8,4.6-12.3,5.3c-3.9,0.6-7.9,0.5-11-2.6c-2.5-2.5-1.9-5.6,1.5-6.8c7.3-2.5,14.6-2.4,21.9,0.2c1.1,0.4,1.7,0.3,2.5-0.5
		c1.3-1.4,2.9-2.6,3.7-4.4c1.4-3.1,0.3-5.9-1.4-8.5c-1.2-2-2.6-3.8-3.8-5.8c-2.5-4-2-7.7,1.2-11.2c1.8-2,4.3-3.3,5.8-5.7
		c3.7-5.7,4.4-11.7,1.9-17.9c-2.7-6.6-8.4-9.1-15-10.4c-2.4-0.5-4.9-0.4-7.3-0.4c-1.1,0-1.7,0.4-1.4,1.4c0.2,1-0.9,2.5,1.2,2.9
		c1.5,0.2,3.4,0.3,3.8,2.3c0.4,2-1.3,3-2.7,3.5c-2.2,0.9-2.4,2.4-2.3,4.4c0.1,5.6,0,11.2,0,16.8c-0.7,0.7-1.6,0.8-2.5,1
		c-7.5,1.9-15.1,3-22.8,3.5c-12.4,0.8-24.2-2-35.9-5.4c-0.3-0.1-0.6-0.2-0.9-0.4c-0.1-0.1-0.1-0.2-0.2-0.3c0-5.7,0-11.4,0.1-17.2
		c0-1.1-0.3-1.8-1.2-2.3c-0.6-0.3-1.1-0.7-1.6-1c-2.1-1.5-2.5-4.2-1-6.3c0.8-1,1.6-2.1,2.8-2.6c1-0.5,1-1.2,1-2c0-1-0.6-1.3-1.3-1.7
		c-1.1-0.5-2.3-0.9-3.3-1.6c-1.9-1.4-2.1-3.1-0.5-4.9c1.1-1.2,2.5-1.9,4-2c1.1-0.1,1.1-0.5,1-1.3c0-0.6-0.1-1.3,0-1.9
		c0.3-2.2-0.3-3.6-2.6-4.3c-1.6-0.4-3.1-1.6-2.7-3.5c0.4-1.9,2-2.9,3.8-3c1.8-0.1,2-0.9,1.9-2.3c-0.2-3,0.3-6-0.4-9
		c0.9-0.4,1.8-0.1,2.6,0.1c8.4,2,16.9,3.2,25.5,3.6c9.3,0.5,18.5-0.4,27.6-1.4c2-0.2,4.1-0.4,6.1-0.8
		C44.4,219,45.1,218.9,45.8,219.5z"/>
	<path class="st8" d="M-26,202.2c0.1-3.1,2-4.8,4.6-5.8c5.5-2.1,11.4-2.9,17.2-3.9c7.9-1.4,15.9-1,23.8-0.6
		c7.6,0.4,15.4,0.5,22.9,2.2c3.8,0.9,7.6,2,10,5.6c0.6,1,1.1,2,1.1,3.2c-1.1,3.2-3.9,4.5-6.6,5.6c-5,2-10.3,2.9-15.6,3.4
		c-16,1.3-31.8,0-47.4-4.2c-2.5-0.7-4.9-1.6-7.2-2.8C-24.4,204.3-25.4,203.5-26,202.2z"/>
	<path class="st9" d="M-26,202.2c4.1,3.9,9.4,4.8,14.5,6.1c5.7,1.5,11.5,2.1,17.4,2.8c7.3,0.8,14.6,0.9,21.9,0.6
		c6.6-0.3,13.3-1.3,19.5-3.8c2.5-1,4.6-2.8,6.3-4.9c0.8,2.4,0.5,4.9,0.3,7.4c-0.1,0.7-0.8,1.1-1.3,1.6c-2.4,2.3-5.2,4.4-6.8,7.5
		c-3.6,0.4-7.1,0.7-10.7,1.3c-3.2,0.5-6.5,0.8-9.7,1c-3.9,0.2-7.8,0.7-11.7,0.5c-10.8-0.5-21.6-1.5-32-4.6c-2.2-3.4-4.2-7-7.6-9.5
		c-1.2-0.9-0.4-2.7-0.5-4C-26.4,203.4-26.1,202.8-26,202.2z"/>
	<path class="st8" d="M-29.8,293.7c2.6-1.8,5.2-3.3,8.1-4.7c2-0.9,3.4-2.3,3.4-4.7c0,0,0.1,0,0.1,0c0.6,2.7,2.7,3.4,5,4.2
		c7.4,2.4,15.1,3.9,22.8,4.8c7.6,0.8,15.1,1,22.7-0.6c3.4-0.7,6.7-1.9,9.7-3.7c0.6-0.4,1.2-1,2.1-0.7c1.3,2,3.5,2.8,5.3,4.2
		c0.9,0.7,2.1,1.3,2,2.7c-0.9,2.3-2.9,3.3-5,3.9c-12.3,3.9-24.8,6.6-37.9,5.9c-4-0.2-7.9-0.8-11.8-1.8c-5.1-1.3-10.3-2.2-15.3-4.1
		c-3.5-1.3-6.7-3.3-10.2-4.5C-29.3,294.5-29.6,294.2-29.8,293.7z"/>
	<path class="st9" d="M-29.8,293.7c4.3,1.2,8,3.7,12.2,5.2c5.6,1.9,11.3,3.2,17.1,4.4c5.3,1.1,10.6,1.3,16,1.2
		c7.9-0.2,15.5-1.7,23-3.7c2.4-0.6,4.7-1.3,7-2c2.3-0.6,4.1-2.1,5.8-3.7c0.7,1.8,0.4,3.7,0.3,5.5c0,1-0.9,1.4-1.6,1.7
		c-9.8,3.9-19.5,7.6-30.2,8.4c-11.8,0.8-23.2-0.9-34.6-3.9c-2.9-0.8-5.8-1.5-8.7-2.4c-5.3-1.7-6.4-3.3-6.4-8.8
		C-29.9,295-29.9,294.4-29.8,293.7z"/>
	<path class="st127" d="M44,288.3c-5.1,3.6-10.9,5.2-17,5.8c-13.5,1.3-26.5-0.8-39.3-4.7c-1.3-0.4-2.5-0.9-3.8-1.3
		c-2-0.7-2.3-1.9-2.1-3.7c4.2,1.1,8.4,2.3,12.7,3.2c5,1.1,10,2,15.2,2.3c11.1,0.7,21.9-0.9,32.7-3.7c0.6-0.1,1.1-0.2,1.7-0.3
		C43.9,286.8,43.9,287.5,44,288.3z"/>
	<path class="st71" d="M56.7,321.4c-4.3,2.8-8.7,5-13.6,5.4c-2.5,0.2-5.1-0.1-7.1-2.2c-1.4-1.5-1.3-2.5,0.7-3.3
		c4.1-1.6,8.3-2,12.6-1.6C51.7,320,54.2,320,56.7,321.4z"/>
	<path class="st105" d="M44.1,248.7c-0.3-2.7,0.7-3.8,3.2-3.6c0.9,0.1,1.2,0.5,0.6,1.2C46.9,247.5,45.7,248.5,44.1,248.7z"/>
</g>
<g>
	<path class="st66" d="M991.6,183.7c-3.1,6.1-6.6,11.8-10.8,17.1c-3.1,3.9-6.4,7.5-11.4,8.9c-5.7,1.5-10.4-1.8-10.8-7.6
		c-0.3-5.8,1.8-10.8,4.7-15.7c2.7-4.5,6.2-8.4,10.1-12.5c-2.3-0.3-4,0.8-5.7,1.3c-6,1.6-12,2.9-18.1,3.2c-3.7,0.2-7.6-0.3-10.9-2.6
		c-4.5-3.2-5.2-8.2-1.6-12.5c4.9-5.7,11.5-7.5,18.5-8.8c4-0.7,8.1-0.6,13.1-0.7c-6.2-3.2-11.5-6.2-16.4-9.8c-2.6-2-5.2-4-7.3-6.6
		c-3.8-4.7-4.6-9.7-2.2-13.3c2.1-3.2,7.7-4.4,13-3c7.3,1.9,13.1,6.3,18.5,11.3c1.7,1.5,2.9,3.4,4.8,4.8c-1.2-4.7-2.7-9.1-3.6-13.7
		c-1.4-7-3-14.1-2.1-21.3c0.7-5.5,4.3-6.8,8.7-3.5c8.4,6.5,12.1,15.6,14.2,25.5c0.6,2.7,0.9,5.4,1.4,8.7c3.9-9.3,9.1-17.2,15.2-24.5
		c1.2-1.4,2.5-2.7,3.7-4.1c2-2.2,4.6-3.5,7.4-2.5c2.9,1,2.9,4,3.1,6.5c0.5,7.3-1.3,14-4.6,20.4c-2.3,4.5-5.2,8.5-8.2,12.6
		c5.3-1.8,10.6-3.2,16-4.4c5-1.1,10.1-1.4,15.2-2c1-0.1,2.1-0.1,3.1,0.1c2.5,0.5,4.9,1.2,5.9,3.9c0.9,2.5-0.8,4.4-2.2,6
		c-4.7,5.7-10.9,9.2-17.9,11.5c-4.9,1.6-9.9,2.1-15.6,3.2c6,2.9,11.5,5.6,16.4,9.1c4.4,3.1,8.6,6.3,12.4,10.2c2,2.1,3.3,4.5,2.2,7.2
		c-1.1,2.5-3.7,3-6.3,3.1c-11.1,0.4-20.6-3.9-29.3-10.3c-0.9-0.6-1.7-1.3-3.2-2.3c2.9,7.9,4.6,15.4,5.5,23c0.5,4.6,0.2,9-2.4,13
		c-3.3,4.9-8.5,5.5-12.9,1.5c-5.7-5.3-7.4-12.3-8.5-19.6C992,191,991.7,187.4,991.6,183.7z"/>
	<path class="st57" d="M994.3,150.4c4.8,0,8.8,3.3,8.7,7.2c0,4-3.7,7.6-7.7,7.6c-4.1,0-7.2-3.9-7.1-9
		C988.2,152.1,990,150.4,994.3,150.4z"/>
</g>
<path class="st1" d="M338.1,1795.3c11.1,1.3,22.2,0.2,33.3,0.5c3.2,0.1,6.4,0.6,9.7,0.6c4.8-0.1,7,3.4,4.9,7.8
	c-0.8,1.7-1.9,3.2-2.7,4.9c-2,4.6-0.8,8.3,3.1,11.5c10.1,8.3,16.2,19.2,18.6,31.9c1.9,10,1.8,20-2.8,29.5
	c-5.9,11.9-16.1,18-28.6,20.5c-13.6,2.7-27.2,2.2-40.4-2.2c-13.3-4.5-22.4-13.2-24.9-27.2c-2.7-15.6,0.2-30.3,10.1-43.2
	c3.2-4.2,7.1-7.6,11.1-11c3.4-2.8,4.4-6.7,2.6-10.6c-0.6-1.4-1.4-2.7-2-4c-2.7-5.5-0.8-8.8,5.2-8.9
	C336.1,1795.3,337.1,1795.3,338.1,1795.3z"/>
<path class="st2" d="M258,1831.1c3,0,6,0,9-0.1c1.6,0,2.3,0.5,1.8,2.3c-0.5,2-0.6,4.2-1.4,6.2c-1.2,3.2,0.2,3.7,2.9,3.5
	c2-0.1,4-0.1,6,0c7.3,0.1,12.6,3.4,15.6,10.1c3.2,7.2,2.7,14.9,1.8,22.4c-0.7,5.4-4.7,9.4-9.4,11.9c-15.2,8.3-30.7,9.9-46.2,1.1
	c-9.7-5.4-14.8-19-12.6-29.8c1.6-7.9,9.5-13.3,19.1-13.9c0.5,0,1,0,1.5,0c4.2-0.3,4.4-0.7,3.1-4.7c-3-8.8-3-8.8,6.5-8.9
	C256.5,1831.2,257.3,1831.2,258,1831.1C258,1831.2,258,1831.1,258,1831.1z"/>
<g>
	<path class="st3" d="M669.8,1575.1c9.8,0.4,19.5,1.9,29.3,2.9c12.5,1.3,25,2.8,37.4,4.1c1.4,0.2,2.7,0.1,3.8-1
		c9.1-9.6,18.2-19.1,27.3-28.6c22-0.4,44-0.8,65.9-1.1c-5.8,5.9-12.5,10.6-18.6,16.1c-0.6,0.6-1.5,0.9-1.7,2.3
		c6.3,0.6,12.5,1.2,18.8,1.8c2.1,0.2,4.2,0.4,6.3,0.6c0.8,0.1,1.9-0.3,2.2,0.9c0.3,1-0.4,1.6-1,2.2c-4.2,3.7-8.4,7.5-12.6,11.2
		c-13.9,12.1-27.7,24.3-41.6,36.4c-2.1,1.8-3.9,4-6.2,5.4c-3.2,2-3.8,5-4.1,8.2c-0.4,4.7-0.9,9.4-1.3,14.1c-0.2,2.7,0.2,4.9,2.2,7.1
		c6.6,7.1,12.7,14.7,19.1,21.9c2.2,2.5,2.9,4.4,0,7c-3.1,2.8-5.7,6.2-8.6,9.3c-0.7,0.7-1.3,1.7-2.5,1.1c-1-0.5-0.7-1.5-0.6-2.3
		c0.2-3.5,0.4-6.9,0.7-10.4c0.1-1.6-0.3-2.8-2.2-2.6c-8.5,0.8-15.1-3.3-21.9-7.8c-21.4-13.9-43-27.6-64.6-41.2
		c-2.7-1.7-4.2-4-5.4-6.8c-3.3-8.4-6.8-16.8-10.2-25.2c-0.4-0.9-1-1.7-1.5-2.5c-3.6-5.3-5.1-11.6-7.6-17.4
		C670.1,1578.9,668.7,1577.2,669.8,1575.1z"/>
	<path class="st4" d="M669.8,1575.1c2.6,6.7,5.3,13.4,7.9,20.1c0.4,0.9,0.5,1.9,0.8,2.8c-8.7-0.7-17.3-1.3-26-2
		c-3.8-0.3-7.7-0.7-11.5-1c-0.9-0.1-1.8-0.1-2.1-1.2c-0.2-0.9,0.6-1.3,1.2-1.7c9.4-5.6,18.9-11.2,28.3-16.8
		C668.8,1575.1,669.4,1575.2,669.8,1575.1z"/>
</g>
<g>
	<path class="st5" d="M563.5,1850.6c6.1-7.1,13.6-12.8,20.5-19c9.6-8.6,19.4-17.1,29.1-25.6c7.8-6.7,15.8-13.3,23.7-19.9
		c1.6-1.3,3.1-2.7,5.3-3.3c-7.4,7.8-14.5,15.6-21.9,23.1c-4.3,4.4-8.9,8.3-13.3,12.6c-11.7,11.3-23.4,22.7-35.2,33.9
		c-1.8,1.7-3.8,3.2-5.9,4.6c-1.3,0.9-3,2-4.4,0.5c-1.5-1.5-1.1-3.4,0-5.1c0.2-0.3,0.4-0.6,0.6-1c1.7-1,1.9,1.6,3.5,1.1
		C564.5,1852.3,563.7,1851.6,563.5,1850.6z"/>
	<path class="st6" d="M563.5,1850.6c1.1,0.6,2,2.1,4.1-0.4c-0.8,2.5-1.8,3.2-3.1,4.3c-0.5-1.4-1-2.6-2.4-3
		c-7.1-2.5-13.5-0.2-19.6,3.1c-10.5,5.7-19.7,13.4-30.4,19.9c9.5,6.8,19.5,10,30.8,8.4c3.1-0.4,6.1-1.2,9-2.4
		c10.8-4.5,15.1-10.5,16.7-23.7c2.5,7.3-0.5,12.6-4.6,17.4c-6,7-14.3,9.7-23.2,10.6c-10.2,1-19.5-2-27.9-7.7c-1.8-1.2-3-1.4-5-0.2
		c-8,4.6-16.7,7.6-26,8.8c-2.6,0.3-5.1-0.6-7.7-0.9c4.9-0.7,9.9,0,14.7-1.3c6.5-1.8,12.7-4.4,18.6-7.7c2.7-1.5,0.6-2.4-0.3-3.2
		c-6-5.5-10.3-12.1-12.8-19.8c-0.2-0.6-0.6-1.1,0.1-2.1c1.2,2.4,2.3,4.7,3.4,6.9c2.6,5.3,6.2,9.9,10.5,14c1.7,1.6,2.8,2.2,5,0.6
		c7.6-5.4,15.3-10.7,23.1-15.8c5.7-3.6,11.6-6.7,18.6-7.2C558.2,1848.9,560.9,1849.3,563.5,1850.6z"/>
</g>
<g>
	<path class="st7" d="M673.7,1847.3c0.1,1.4,0.1,2.7-0.3,4.1c-0.3,0.8-0.6,2,0.4,2.3c4.5,1.6,2.2,3.1,0.1,5
		c-1.8,1.7-0.7,4.5,1.8,5.3c1.9,0.7,2.7,1.9,0.9,3.6c-1,0.9-2,1.8-3.2,3c3,1.3,6,0.4,8.9,1.2c10.6,2.8,14.5,15.8,7,23.8
		c-0.4,0.5-0.9,0.9-1.3,1.3c-4.2,4.4-4.2,5-0.7,10.1c1.1,1.6,3.1,3,2.2,6c-1.9-3-3.6-5.5-5.2-8.1c-1.7-2.8-1.2-5.4,1.1-7.7
		c2.5-2.4,5-4.7,5.8-8.5c0.9-4.5,0.3-8.4-2.9-11.7c-3.7-3.8-8.3-4.9-13.4-4.3c-1.8,0.2-2.1,2.1-0.9,2.6c5.5,2.6,0.9,3.9-0.5,5.6
		c-0.7,4.7,0.2,9.4-0.2,14.1c-0.7,1.3-2.1,1.7-3.4,2.1c-13.4,3.9-26.6,2.9-39.8-0.8c-0.7-0.2-1.4-0.6-1.9-1.1
		c-0.1-3.2-0.1-6.5-0.2-9.7c-0.1-2.2,0.2-4.3-2.2-5.9c-1.8-1.2-1.2-3.4,0.4-4.8c2.2-2,2-3.3-0.6-4.8c-2.5-1.4-2.5-3.1,0-4.8
		c3-2,3-3.9,0-6.2c-1.3-1-2.6-2.5-0.5-3.4c4.9-2.1,3.1-5.7,2.5-9.1c1.1-1,2.3-0.7,3.5-0.4c12.8,2.5,25.7,2.5,38.5,0.4
		C670.9,1846.3,672.5,1846.1,673.7,1847.3z"/>
	<path class="st8" d="M621.8,1835.5c-0.2-2.4,1.2-3.8,3.2-4.5c5.7-1.9,11.4-3.3,17.4-3.4c9.6-0.2,19.1-0.7,28.6,1.1
		c3.9,0.7,7.5,2,8.4,6.6c-1.9,4-5.7,5.1-9.4,6c-8,1.8-16.1,1.8-24.2,1.3c-5.8-0.4-11.7-1.1-17.3-2.8
		C625.9,1839,623.2,1838.3,621.8,1835.5z"/>
	<path class="st9" d="M621.8,1835.5c5.2,3.7,11.2,4.4,17.2,5.2c10.1,1.5,20.2,1.4,30.3-0.3c3.9-0.7,7.2-2.6,10.1-5.1
		c0.8,3.7-0.1,6.6-3.2,9c-1,0.8-1.7,2-2.6,3.1c-5.6,0.6-11.3,1.4-16.9,1.8c-9.9,0.7-19.7-0.3-29.4-2.5c-1.1-1.6-2-3.5-3.4-4.8
		C622,1840,621.4,1838,621.8,1835.5z"/>
	<path class="st8" d="M673.1,1895.2c0.3-4.7-1-9.5,0.4-14.2c0.1,3.9,0.4,7.9,0.2,11.8c-0.1,3.3,0.6,5.8,3.8,7.2
		c0.8,0.3,1.4,1,1.6,1.9c-0.7,1.9-2.2,2.9-4,3.6c-17.8,6.4-35.3,6.2-52.6-1.7c-0.9-0.4-1.7-1-2.4-1.7c2.7-1.8,5.4-3.6,8.1-5.4
		c1.7-0.6,3.2,0.3,4.7,0.8c9.5,2.9,19.1,3.6,28.9,2.7C665.9,1899.8,670.2,1898.8,673.1,1895.2z"/>
	<path class="st10" d="M620,1902.1c6.7,2,13.2,4.8,20.3,6.1c12.4,2.2,24.2-0.2,35.8-4.2c1.1-0.4,2-1.4,3-2.1
		c0.8,3.4-0.6,4.8-3.8,6.4c-16.5,7.9-33.1,6.1-49.9,1.5C621.5,1908.8,619.3,1906.4,620,1902.1z"/>
	<path class="st11" d="M673.1,1895.2c0.2,1.6-0.5,2.5-1.9,3.3c-2.5,1.4-5.3,2.5-8.1,2.7c-11.9,0.9-23.8,0.6-35-4.5c0-0.5,0-1,0-1.5
		c5.3,0.9,10.7,1.8,16,2.7C654.1,1899.7,663.6,1897.8,673.1,1895.2z"/>
</g>
<g>
	<path class="st12" d="M1015,1548.2c0,3.2-1,5.9-4,7.5c-1.4,0.4-2.8,0.4-4.1-0.5c-3.2-1.4-2.3-4.3-2.4-6.8
		C1008,1548.3,1011.5,1548.3,1015,1548.2z"/>
	<path class="st13" d="M868.8,1550.7c-0.2,0.5-0.7,1.1-0.7,1.6c0,1.4,0,2.8-1.9,2.8c-1,0-2-0.1-2.5-1.1c-0.8-1.6,0.3-2.5,1.4-3.3
		C866.3,1550.7,867.6,1550.7,868.8,1550.7z"/>
	<path class="st14" d="M899.5,1651.8c-0.4-0.9-0.7-1.7-1.6-2.4c-3-2.5-3.3-5.9-1-8.5c2.2-2.4,6.9-2.6,9.1-0.3
		c2.6,2.6,2.3,5.5-0.8,8.4c-0.3,0.3-0.6,0.4-0.9,0.6C902.5,1649.8,900.9,1650.6,899.5,1651.8z"/>
	<path class="st15" d="M864.3,1581.5c-2.6-0.3-4.5-1.6-5.2-4.2c-0.7-2.7,0.6-4.8,2.8-6.4c1.6-1.2,3.2-1.3,4.8-0.1
		c4.2,2.9,4.6,5.3,1.3,9.6C867.2,1582.3,865.9,1582.5,864.3,1581.5z"/>
	<path class="st14" d="M1063.6,1589.4c0.2,2.1,0.3,4.3-1.3,6c-1.6,1.7-3.6,2.6-6,1.8c-2.2-0.7-3.1-2.5-3-4.6
		c0.1-2.6,1.4-4.5,3.9-5.4c1-0.4,2.2-0.5,3.3-0.7C1062.2,1586.7,1063.2,1587.7,1063.6,1589.4z"/>
	<path class="st16" d="M1010.1,1579c5.1,4.6,5.2,5,2.5,11.1c-1,1.2-2.2,1.7-3.7,0.9c-5.3-1.8-6.1-4.3-3-9.8
		C1006.8,1579.6,1008.4,1579.2,1010.1,1579z"/>
	<path class="st15" d="M1037.1,1613.7c-1.6,2.1-3.4,4.1-6.4,3.5c-2.7-0.5-3.8-2.5-4.1-5.1c-0.5-2.1,0.1-3.6,2.2-4.3
		c3.6-1.9,6.6-1,8.9,2.3C1038.3,1611.4,1038,1612.6,1037.1,1613.7z"/>
	<path class="st15" d="M884.1,1614.7c-2.9,0-5.1-1.2-5.9-4c-0.9-2.9,0.7-5.7,3.4-6.4c3.6-0.8,6.4,0.8,6.9,4.2
		c0.1,0.8-0.1,1.7-0.1,2.6C887.5,1612.9,886,1614.1,884.1,1614.7z"/>
	<path class="st17" d="M897.1,1661.6c-1.4-2.3-1.6-4.3,1.4-5.4c1.4-0.7,2.4-0.4,3,1.1c0.9,1.9,0.8,3.6-1.4,4.6
		C899,1662.4,898,1662.6,897.1,1661.6z"/>
	<path class="st18" d="M884.1,1614.7c0.9-1.8,2.4-2.9,4.3-3.6c2,1,2.6,2.4,0.9,4.1C887.5,1616.9,885.6,1617.3,884.1,1614.7z"/>
	<path class="st17" d="M862.3,1563.6c-1-1.4-1-2.8,0.4-3.9c1.1-0.8,2.5-0.6,3.4,0.2c1.4,1.3,1.1,2.8-0.1,4.2
		C864.6,1565.3,863.3,1565.1,862.3,1563.6z"/>
	<path class="st19" d="M1006.9,1555.2c1.4-0.1,2.8-0.4,4.1,0.5c0.6,1.4,0.6,2.6-0.8,3.5c-1,0.6-2.1,0.5-3.1-0.1
		C1005.5,1557.9,1006.2,1556.5,1006.9,1555.2z"/>
	<path class="st20" d="M1075.6,1570.4c0.3-1.4,0.9-2.4,2.4-2.3c1.7,0,2.4,1.3,2.4,2.7c0,1.4-1.1,2.2-2.5,2.1
		C1076.4,1572.7,1075.8,1571.6,1075.6,1570.4z"/>
	<path class="st21" d="M1070,1580.3c0.4,1.7-0.2,3.1-1.9,3.3c-1.3,0.2-2.2-1.1-2.8-2.1c-0.9-1.6,0.4-2.4,1.7-3
		C1068.8,1577.9,1069.7,1578.6,1070,1580.3z"/>
	<path class="st22" d="M899.5,1651.8c0.4-3.4,2.3-3.4,4.8-2.1c0.7,1.7,0.6,3.1-1.3,3.9c-1.5,0.9-2.7,0.6-3.4-1.1
		C899.6,1652.2,899.5,1652,899.5,1651.8z"/>
	<path class="st23" d="M897.9,1628.5c2.1,0.5,2.6,1.8,1.7,3.7c-0.6,1.5-1.6,1.9-3.1,1.2c-1.8-0.7-1.8-2.3-1.6-3.8
		C895.6,1628.5,896.6,1628,897.9,1628.5z"/>
	<path class="st24" d="M1047.3,1606.1c0.1,1.6-0.2,3.1-2.2,3.1c-1.5,0-2.7-1.1-2.8-2.5c-0.2-1.9,1.4-2.3,3-2.3
		C1046.5,1604.4,1047.2,1605,1047.3,1606.1z"/>
	<path class="st25" d="M1013.6,1597.6c-2.1-0.3-2.7-1.5-2.2-3.4c0.3-1.2,1.1-1.5,2.3-1.3c2.7,0,3.3,1.4,2.2,3.7
		C1015.4,1597.6,1014.7,1598,1013.6,1597.6z"/>
	<path class="st26" d="M1024.2,1610c-2.1,0.3-3.2-0.5-3.1-2.7c0-1.6,0.6-2.5,2.4-2.3c1.3,0.2,2.3,0.7,2.5,2.2
		C1026.5,1608.7,1025.8,1609.6,1024.2,1610z"/>
	<path class="st27" d="M892.9,1673c-0.3-1.6,0.1-3,1.7-3.6c0.9-0.4,1.7,0.1,2.4,0.6c1.5,1.2,0.7,2.4,0,3.6
		C895.4,1674.8,894,1674.9,892.9,1673z"/>
	<path class="st28" d="M1047.3,1606.1c-0.6-0.6-1.3-1.1-1.9-1.7c-0.1-2.2,1.1-3.1,3.2-3.1c1,0.1,1.7,0.7,1.8,1.7
		C1050.5,1605.3,1049.3,1606.1,1047.3,1606.1z"/>
	<path class="st29" d="M897.1,1661.6c1,0.1,2,0.1,3,0.2c0.4,1.6,0.9,3.2-1.1,4.1c-1.2,0.6-2.2-0.1-2.9-1
		C895,1663.5,895.6,1662.4,897.1,1661.6z"/>
	<path class="st30" d="M897.9,1628.5c-1,0.4-2,0.7-3,1.1c-1.1-0.7-2.6-1.3-1.8-3c0.6-1.2,1.7-1.8,3-1.5
		C898.1,1625.5,897.9,1627.1,897.9,1628.5z"/>
	<path class="st31" d="M1013.6,1597.6c0.8-0.3,1.5-0.7,2.3-1c1.4,0.1,2.9,0.2,2.7,2.2c-0.2,1.7-1.7,2.1-3,2.1
		C1013.4,1600.8,1013.4,1599.2,1013.6,1597.6z"/>
	<path class="st32" d="M894.6,1688.6c-1.7-0.3-2.8-0.9-2.7-2.6c0.1-1.4,0.9-1.9,2.2-1.8c1.4,0,2.4,0.6,2.4,2.1
		C896.7,1687.7,895.8,1688.4,894.6,1688.6z"/>
	<path class="st33" d="M888.9,1620.9c0.7-1.6,1.9-2.4,3.4-2.5c1.1-0.1,1.9,0.9,1.7,2c-0.3,1.7-1.8,2.3-3.3,2.4
		C889.6,1623,889.2,1621.9,888.9,1620.9z"/>
	<path class="st34" d="M899.6,1652.4c1,0.8,2.2,1,3.4,1.1c0.7,1.8,0,2.9-1.6,3.7c-0.9-0.6-1.9-1-3-1.1
		C897.8,1654.6,897.7,1653.2,899.6,1652.4z"/>
	<path class="st35" d="M876.8,1599.1c0.7,0.9,2.4,1.5,1.3,3c-0.7,0.9-1.6,2.1-3,1.9c-1.3-0.2-1.7-1.3-1.8-2.5
		C873.5,1599.3,874.8,1598.6,876.8,1599.1z"/>
	<path class="st36" d="M1050.4,1603.1c-0.6-0.6-1.2-1.2-1.8-1.7c0-1.6,0.4-3,2.5-2.9c1.3,0.1,2.1,0.8,2.2,2.1
		C1053.4,1602.5,1052.1,1603,1050.4,1603.1z"/>
	<path class="st37" d="M896.5,1633.5c1-0.4,2.1-0.8,3.1-1.2c1.6,0.6,2.1,1.8,1.4,3.2c-0.7,1.2-2.1,1.9-3.5,1.4
		C895.7,1636.3,896.2,1634.8,896.5,1633.5z"/>
	<path class="st38" d="M1008.6,1569.9c0.7,1.4,0.6,2.7-1.1,3.2c-1,0.3-2.2,1-3-0.1c-0.9-1.1-0.6-2.3,0.3-3.3
		C1006.2,1567.8,1007.4,1568.5,1008.6,1569.9z"/>
	<path class="st39" d="M1023.5,1604.9c-0.8,0.8-1.6,1.6-2.4,2.3c-1.5,0-2.9-0.4-2.7-2.1c0.1-1.3,1.5-2,2.6-2.3
		C1022.6,1602.3,1023.5,1603.2,1023.5,1604.9z"/>
	<path class="st40" d="M896.4,1676.8c0.9,1,1.3,2.2,0.2,3.2c-1,0.9-2.4,0.9-3.4,0.2c-1.4-0.9-1-2.3-0.3-3.5
		C894.1,1675.7,895.3,1675.7,896.4,1676.8z"/>
	<path class="st41" d="M1068.8,1575.6c0.5-1.3,1.1-2.6,2.8-2.4c1,0.1,1.9,0.5,2.3,1.6c0.6,1.8-0.6,2.7-1.8,3.6
		C1070.5,1577.9,1069.6,1576.8,1068.8,1575.6z"/>
	<path class="st42" d="M864.3,1581.5c1.3,0,2.5-0.4,3.7-1c1.2,0.7,1.5,1.8,1.3,3c-0.7,1.7-1.9,2.1-3.6,1.5
		C864.3,1584.2,863.8,1583.1,864.3,1581.5z"/>
	<path class="st43" d="M865.7,1585.1c1.2-0.5,2.4-1,3.6-1.5c1,0.8,2.1,1.5,1,3c-0.8,1-2.2,1.4-3.3,1.4
		C865.5,1587.8,865.3,1586.4,865.7,1585.1z"/>
	<path class="st44" d="M872.6,1593.8c2,0.1,3.6,0.5,2.3,3.1c-0.7,1.1-1.4,1.9-2.9,1.5c-1.5-0.7-2.1-1.8-1.5-3.4
		C870.7,1593.7,871.4,1593.4,872.6,1593.8z"/>
	<path class="st45" d="M1037.1,1613.7c-0.1-1.3-0.1-2.5,0.7-3.7c2.1-0.8,2.5,1.1,3.1,2.2c0.5,0.8,0,1.6-0.7,2.2
		C1038.7,1615.7,1038,1614.4,1037.1,1613.7z"/>
	<path class="st46" d="M862.3,1563.6c1.1,0.7,2.4,0.7,3.7,0.6c0,1.2,0,2.5,0,3.7c-1.2,1.1-2.4,1.1-3.6,0.1
		C861,1566.5,862.1,1565.1,862.3,1563.6z"/>
	<path class="st47" d="M872.6,1593.8c-0.7,0.4-1.4,0.8-2.1,1.2c-1.5-0.2-2.8-0.8-1.9-2.5c0.7-1.3,2.1-2.4,3.5-2
		C874,1591.1,873.2,1592.6,872.6,1593.8z"/>
	<path class="st48" d="M1013.6,1592.9c-0.8,0.4-1.5,0.9-2.3,1.3c-2.6,0.3-2.5-1.5-2.4-3.3c1.2-0.3,2.5-0.6,3.7-0.9
		C1014,1590.7,1013.8,1591.8,1013.6,1592.9z"/>
	<path class="st49" d="M1005,1566.4c-0.5-1.4-0.8-2.7,0.8-3.6c1-0.6,2.3-0.5,3.1,0.4c0.9,1.1,0.9,2.3-0.2,3.3
		C1007.4,1567.3,1006.2,1567.3,1005,1566.4z"/>
	<path class="st50" d="M1010.1,1579c-0.9,1.6-2.8,1.5-4.2,2.2c-1-1.2-1.9-2.8,0.1-3.5C1007.2,1577.3,1009.8,1575.5,1010.1,1579z"/>
	<path class="st51" d="M1063.6,1589.4c-1.1-1-2.1-1.9-3.2-2.9c0.8-1.9,2.2-2.9,3.9-1.2C1065.9,1586.7,1065.4,1588.3,1063.6,1589.4z"
		/>
	<path class="st52" d="M1005,1566.4c1.2,0,2.4,0,3.6,0.1c0.9,1.1,1,2.3,0,3.5c-1.2-0.5-2.5-0.6-3.8-0.2
		C1003.4,1568.5,1004.4,1567.5,1005,1566.4z"/>
	<path class="st48" d="M1068.8,1575.6c1.7,0.3,2.9,1,3.2,2.8c-0.4,1-1,1.7-2,2c-1-0.6-2-1.1-2.9-1.7
		C1067,1577.2,1067.3,1576,1068.8,1575.6z"/>
	<path class="st53" d="M862.4,1568c1.2,0,2.4-0.1,3.6-0.1c0.6,0.9,1,1.9,0.7,3c-1.6,0-3.2,0-4.8,0.1
		C861.5,1569.9,861.8,1568.9,862.4,1568z"/>
	<path class="st54" d="M896.4,1676.8c-1.2,0-2.3-0.1-3.5-0.1c-0.8-1.2-0.9-2.4,0-3.7c1.3,0.8,2.7,0.8,4.2,0.6
		C897.5,1674.8,897.2,1675.8,896.4,1676.8z"/>
	<path class="st55" d="M1024.2,1610c0.6-1,1.2-2,1.8-2.9c1,0,2.1-0.4,2.9,0.7c-1.1,1.3-1.7,2.8-2.2,4.3
		C1025.3,1612,1024.3,1611.5,1024.2,1610z"/>
	<path class="st56" d="M872,1598.4c0.9-0.5,1.7-1.5,2.9-1.5c1,0.5,1.8,1.1,1.9,2.3c-1.5,0.4-2.7,1-3.5,2.4
		C871.6,1601,871.5,1599.9,872,1598.4z"/>
</g>
<g>
	<path class="st57" d="M840.1,1844.5c0.9,1.7,2.8,2.1,4.3,2.7c6.2,2.6,10.7,6.7,12.3,13.4c-0.8,9.3-7.4,14.2-14.4,18.3
		c-16.7,9.8-34.6,16.3-53.9,18c-19.2,1.7-37.6-1.3-53.7-13.1c-6-4.4-10.4-10.3-14.4-16.5c-8.3-16.9-8.6-33.1,3.4-48.9
		c14.4-18.8,31.8-33.5,54.2-41.6c15-5.4,30.4-7.7,46-2.6c12.3,3.9,20.1,12.4,24.3,24.5c0.8,2.5,1.6,5,2.3,7.4c-0.4,4.7,0.7,9.3-1,14
		c-2.1,5.6-5.1,10.8-7.9,16.1C840.2,1838.9,839.1,1841.5,840.1,1844.5z"/>
	<path class="st58" d="M720.3,1867.4c3.6,3.5,6.3,7.9,10,11.4c9.7,9.4,21.6,14.1,34.6,16.2c28.1,4.6,53.4-3.9,77.5-17.2
		c6.9-3.8,12.2-9.3,14.4-17.2c1.7,7.4-1.5,12.9-7,17.2c-12.7,10-27.7,15.3-43,19.2c-17.9,4.6-36,4.9-53.8-1.3
		C738.2,1890.8,727.2,1881.5,720.3,1867.4z"/>
	<path class="st59" d="M840.1,1844.5c-2.2-1.2-1.7-3-1.1-4.8c1.4-4.3,4.1-7.9,6.1-11.8c3.1-6.1,5.4-12.4,4.9-19.5
		c-0.1-0.7-0.1-1.5,0.6-2.1c2.5,10.4-0.2,19.8-5.5,28.7C843.2,1838,841.8,1841.3,840.1,1844.5z"/>
	<path class="st1" d="M739,1851.5c-9.9-9.7-4.9-20.8,0.8-30.1c1.7-2.7,4.6-4.1,7.8-4.7c4-0.8,7.7-2.8,11.9-3
		c5.7-0.2,9.3,4.2,7.7,9.8c-1.4,5.1-4.9,9.5-5.6,14.9c-0.2,1.4-1.1,2.8-0.3,4.3c-6.8,2.9-13.4,6.1-20.2,9
		C740.4,1851.9,739.7,1852,739,1851.5z"/>
	<path class="st60" d="M789.3,1811.4c-0.5-1.7,0.4-3.6,1.7-4.5c5.6-4,10.5-9.6,17.3-11.1c5.2-1.1,10.6-2.2,15.9-2.6
		c5.9-0.4,9.6,5.1,6.8,10.4c-2,3.8-4.1,7.6-6.1,11.4c-1.8,3.5-5,4.6-8.8,3.9c-5.9-1.1-11.9,0.2-17.8,0.1
		C793.1,1818.9,789.4,1815.9,789.3,1811.4z"/>
	<path class="st61" d="M739,1851.5c4.9-2.2,9.7-4.3,14.6-6.5c2.5-1.2,5-2.2,7.8-2.3c2.5,0,5,0.5,5.9,3.1c0.9,2.6,0.5,5.3-1.5,7.3
		c-3.3,3.2-5.7,6.9-8.2,10.6c-4.1,6-11.5,8.2-16.6,5.3C733.4,1864.6,732.6,1857.7,739,1851.5z"/>
	<path class="st62" d="M779.9,1793.8c0.4-1.5,0.8-3,2.3-3.7c5.1-2.5,9.9-5.9,15.5-7.3c1.3-0.3,2.7-0.6,4.1-0.4
		c3.1,0.3,6.2,1.1,6.9,4.6c0.7,3.3-1.9,4.9-4.2,6.3c-2.9,1.8-5.6,3.6-8.1,6c-2.2,2-4.8,3-7.9,2c-1.8-0.6-3.6-1-5.4-1.5
		C780.5,1798.6,778.8,1797,779.9,1793.8z"/>
	<path class="st60" d="M779.9,1793.8c0,2.5,1.8,4.1,3.2,5.9c-0.1,4.5-3,7.3-6.4,9.4c-4,2.4-8.7,3-13.3,2.9c-3,0-5.4-3.3-4-5.8
		c3.4-5.5,6.5-11.5,13.6-13.4C775.6,1792.2,777.7,1793.3,779.9,1793.8z"/>
	<path class="st1" d="M795.7,1837.7c0.8-2,1.6-3.9,2.3-5.9c2.4-6.3,6.1-8.6,12.8-8.6c2.6,0,4.3,1.3,5.4,3.3c1,1.9,0.6,4.1-0.8,5.6
		c-3.1,3.2-5.7,6.8-8.1,10.6c-1.6,2.5-4.5,3.4-7.6,3.1C798.4,1843.1,796.3,1840.7,795.7,1837.7z"/>
	<path class="st60" d="M795.7,1837.7c1.9,2.4,4.1,4.7,4,8.1c-1,6.2-5.1,8.3-10.6,5.4c-6.8-3.5-9.4-13.2-3.8-17.1
		c-0.1-0.6,0.1-0.9,0.8-0.6C789.2,1834.9,792.4,1836.3,795.7,1837.7z"/>
	<path class="st1" d="M784.3,1867.1c0.1,5.6-1,6.6-6.7,6.2c-3-0.2-6,0.3-8.9,0.1c-3.6-0.3-5.8-3.3-5.4-7.1c0.3-3,3.7-5.9,6.8-4.7
		C774.8,1863.3,780.2,1863.6,784.3,1867.1L784.3,1867.1z"/>
	<path class="st62" d="M786,1833.6c-0.3,0.2-0.5,0.4-0.8,0.6c-2.4,0.1-5.1,1-6.4-2.1c-1.3-3.1,0.4-5.1,2.5-7.2
		c2.5-2.4,5.5-3.4,8.8-3.4c2.6,0,4.6,1.3,5.4,3.8c0.8,2.6-1.1,4.3-3,5.4C790.4,1831.8,788.1,1832.6,786,1833.6z"/>
	<path class="st63" d="M784.3,1867.1c-0.3-6.3,4.5-11.3,10.9-11.3c2.2,0,3.8,1.2,4.9,3c1,1.7-0.2,3.2-1,4.5
		C795.9,1867.9,789.5,1869.6,784.3,1867.1C784.3,1867.1,784.3,1867.1,784.3,1867.1z"/>
	<path class="st64" d="M812,1875.6c-2.8-0.3-3.4-1.7-2-4c4.5-7,10.9-11.4,19.2-12.6c1.7-0.3,3.2,0.3,4.7,0.8
		c0.8,0.3,1.6,0.9,1.7,1.8c0.1,1.3-0.9,1.6-1.9,1.8c-0.4,0.5-1,0.7-1.6,0.8c-7.2,0.2-12.6,3.9-17.3,9
		C814,1874.1,813,1874.8,812,1875.6z"/>
	<path class="st65" d="M812,1875.6c5.1-7.8,11.9-12.7,21.7-12.2c0.6,0.9,0.3,1.6-0.4,2.3C827.5,1871.6,820.6,1875.4,812,1875.6z"/>
</g>
<g>
	<path class="st66" d="M589.1,1724c-0.2-15.6,6.3-27.8,19.6-35.8c14.8-9,29.9-7.7,44.8,0.4c16.3,8.9,21.6,25.8,20.1,42.6
		c-1.2,12.5-6.5,22.6-16.4,30.2c-19.4,14.9-54.8,9.6-64-17.3C590.9,1737.5,589.1,1731,589.1,1724z"/>
	<path class="st65" d="M622.2,1712.6c3.8-0.1,5.9,1.6,6,5c0.1,3.6-2.5,6.2-6.4,6.3c-3.2,0-5.7-2.2-5.7-5.2
		C616,1715.3,618.5,1712.7,622.2,1712.6z"/>
	<path class="st65" d="M617.7,1733.3c0-3.5,2.3-6.1,5.6-6.2c3.2-0.1,5.7,2.4,5.7,5.6c0,3.7-2.6,6.4-5.9,6.4
		C619.7,1739,617.7,1736.9,617.7,1733.3z"/>
	<path class="st65" d="M643.9,1716.9c0.1,4-1.7,6.1-5.2,6.2c-3.3,0-5.9-2.5-6-5.8c-0.2-2.9,2.8-6.1,5.8-6.2
		C641.5,1711.1,643.8,1713.6,643.9,1716.9z"/>
	<path class="st65" d="M644.9,1732.1c0.1,3.4-1.5,5.2-4.8,5.2c-3.7,0.1-6.6-2.5-6.6-6c0-3.2,2.1-5.3,5.4-5.4
		C642.3,1725.8,644.8,1728.4,644.9,1732.1z"/>
</g>
<g>
	<path class="st67" d="M49.4,1920.9c0.3-3.8,3-6.5,4.6-9.6c3-5.7,7-10.7,11.4-16.8c-7.6,3.5-14.2,6.8-21.1,9
		c-4.7,1.5-9.5,3-14.6,2.6c-1.4-0.1-2.9-0.1-3.5-1.6c-0.7-1.6,0.5-2.6,1.5-3.5c5.4-4.9,12-7.4,18.6-10c3.4-1.3,6.8-2.3,10.3-3.3
		c1.3-0.4,3-0.4,4.2-2.3c-5.9-1-11.5-2.4-17-4.1c-8.4-2.7-16.9-5.2-23.3-12c-3.8-4.1-3.3-8.2,1.5-11.1c3.8-2.3,8.2-3.1,12.5-3.5
		c6.8-0.6,13.7-0.9,20.5,0c3.4,0.4,6.9,0.1,10.4,0.9c-1.7-2.9-4.6-4.1-7-5.9c-6.5-4.9-12.8-9.8-17.7-16.4c-1.5-2-3.6-4.4-1.9-6.6
		c1.7-2.2,4.4-0.3,6.5,0.6c6.3,2.5,11.5,6.9,16.6,11.3c3.2,2.7,6.3,5.6,9.7,8.2c-3.2-13.4-8.3-26.5-6-40.6c0.3-0.4,0.7-0.8,1.2-0.8
		c4-0.5,5-3.8,6.3-6.7c5.2,0.7,8.2,4.4,11.2,8.1c6.6,8.2,11.4,17.5,15.3,27.2c0.4,0.9,0.4,2,2.1,2.3c0-5.5,0.7-10.8,1.5-16.1
		c0.8-5.4,2.2-10.7,4.1-15.8c0.2-0.6,0.5-1.1,0.8-1.7c1-1.7,2.2-4.1,4.1-3.8c2.5,0.4,2.7,3.3,2.9,5.5c0.7,10-0.8,19.8-3.4,29.4
		c-0.3,1.2-1.2,2.3-0.5,3.8c1.5-0.2,2.1-1.5,3-2.4c6.7-6.5,12.6-13.8,20.7-18.8c3.6-2.2,7.3-4.3,11.5-5.3c4.5-1,7.6,1.4,7.9,6
		c0.5,8.4-3.4,15.4-7.2,22.4c-3.4,6.3-7.9,11.9-11.5,18.4c4.5-1.9,9-3.9,13.4-5.8c6-2.5,12.1-4.4,18.5-5.4c2.2-0.3,4.5-0.3,5.5,2.1
		c0.9,2.4-1.3,3.7-2.8,4.8c-8.3,5.9-18,9-27.6,12c-1.2,0.4-2.4,0.5-3.9,1.8c14.1,3.8,28.7,5.8,39.8,15.8c0.8,1.2-0.1,1.9-0.8,2.6
		c-5.5,5-11.4,9.6-17,14.5c-8.1-0.1-16.2-0.7-24.9-1.6c8.8,6,16.8,12,23.4,19.6c0.6,0.5,0.9,1,0.3,1.8
		C122.9,1920.2,86.2,1920.5,49.4,1920.9z"/>
	<path class="st68" d="M159.6,1919.9c-0.2-0.5-0.5-1.1-0.7-1.6c-3.5-6.1-2.6-14.8,2-18.6c3.7-4.9,8.8-8.2,13.4-12.1
		c1.6-1.4,3.2-2.7,4.2-4.6c2.8-3.7,3.5-7.8,2.3-12.3c-0.2-0.7-1.2-1.8,0-2.2c1.4-0.4,1.4,1,1.7,1.9c1.7,6,0.3,11.3-3.7,16
		c-2.2,2.6-4.9,4.6-7.6,6.6c-11.2,8.2-13,13.5-9.4,26.9C161.1,1919.8,160.4,1919.9,159.6,1919.9z"/>
	<path class="st67" d="M60.4,1749.6c6.7-3,13.5-6,20.6-8.7c-2.8-0.7-5.7-1.2-8.5-2c-6.3-1.7-12.4-3.7-17.6-7.8
		c-4.9-3.8-4.5-8,1.2-10.4c3.2-1.3,6.7-1.8,10.2-1.9c6-0.2,12.1-0.1,18.2,0.3c-3.7-3.2-7.8-5.8-11.1-9.2c-2.2-2.3-4.5-4.6-6.5-7.1
		c-0.8-0.9-1.7-2.5-0.6-3.7c1-1.1,2.5-0.6,3.9,0c4.3,1.9,8,4.5,11.5,7.6c2.4,2.1,4.9,4.2,8,6.8c-1.3-5.3-2.6-9.8-3.5-14.3
		c-1.1-5-2.1-10-0.7-15.1c1.4-5.4,4.9-6.7,9.3-3.1c4.1,3.2,6.8,7.6,9.3,12c1.8,3.2,3.3,6.4,4.9,9.7c0.4,0.8,0.5,1.9,1.6,1.7
		c1.2-0.2,0.7-1.4,0.8-2.2c0.3-6.5,1.6-12.8,3.6-18.9c0.6-1.8,1.5-4.2,3.3-4.1c2.2,0.2,2.5,2.9,2.6,4.8c0.4,6.1-1,12.1-2.2,18
		c-0.3,1.2-0.8,2.3,0,4c4.3-3.9,8-8.3,12.5-11.8c3.7-2.8,7.3-5.7,12.1-6.1c4.1-0.3,6.1,2.3,5.3,6.4c-1.8,9.2-6.9,16.7-12.3,24
		c-0.4,0.6-1.2,1-1.1,2.4c3-1.3,5.8-2.6,8.7-3.7c4.9-1.8,9.7-4.1,15.1-3.9c1.2,0,2.8-0.3,3.2,1.2c0.4,1.4-0.7,2.5-1.9,3.3
		c-5.6,3.9-11.9,6.2-18.3,8.3c-1.1,0.3-2.2,0.4-3.2,1.7c4.2,1.2,8.3,2.4,12.4,3.5c5.7,1.6,11,3.9,15.2,8.3c2.6,2.8,2.1,5.8-1.2,7.6
		c-3.5,1.9-7.2,2.7-11.1,2.8c-6.3,0.1-12.7,0.4-19.5-0.9c1.4,2.7,3.6,3.5,5.3,4.8c4.5,3.4,8.7,7,12.2,11.5c1,1.3,2.1,2.9,0.8,4.3
		c-1.2,1.2-2.8,0.3-4.2-0.3c-6.2-2.7-10.8-7.5-15.9-11.6c-1-0.8-1.7-2.1-3.4-2.7c2,6.6,4,12.9,4.9,19.5c0.5,3.7,0.6,7.2-0.4,10.7
		c-1.4,5-5.1,5.8-9.1,2.4c-7.2-6.1-10.4-14.7-14.7-22.8c-0.3-0.5-0.5-1.1-1.2-1.6c-0.5,4.6-1,9.2-2,13.7c-0.7,3.1-1.6,6.3-2.6,9.3
		c-0.5,1.5-1.4,3.4-3.2,3c-1.6-0.4-2.2-2.3-2.3-4c-0.3-5.6,0.7-11.1,1.8-16.6c0.4-1.9,1.4-3.7-0.3-6.8c-2.3,2.7-4.4,5.6-6.9,8.2
		c-3.3,3.4-7,6.3-11.2,8.5c-2.6,1.4-5.3,2.1-8.2,1.8c-0.4-1.1,0.4-1.8,1-2.6c2.6-3.8,2.4-4.8-1.3-7.9c-0.5-0.4-0.9-0.8-1.1-1.4
		c-0.5-2.2,0.7-3.8,1.6-5.6c2.3-4.9,5.5-9.1,8.6-13.6c-6.9,2.9-13.6,6.2-21.1,6.8C57.8,1753.9,57.6,1752.1,60.4,1749.6z"/>
	<path class="st66" d="M60.4,1749.6c-2,2.6-1,4.7,1.1,6.6c0.7,0.7,0.6,1.6,0.3,2.5c-1.9,4.6-3.9,9.2-7.6,11.6
		c4-2.1,9.3-2.2,14.6-2.8c1.3-0.1,2.5,0.2,3.4,1.2c0.2,0.5,0.4,0.9,0.3,1.4c-1,3.6-0.8,7.1,0.3,10.6c-4.7,3.4-10.3,3.1-16,4.2
		c6,4.2,13.2,6.7,16.3,13.9c0,5.7-1.4,7.1-7.5,7.6c-6.7-1.8-12.1-5.7-16.9-10.6c2.2,5.9,3.3,12,3.9,18.1c0.1,1.1,0.3,2.2,0.3,3.3
		c0,1.7-0.5,3.3-2.1,4c-1.5,0.7-2.9,0-4.1-1c-6.4-5-8.3-12.1-9.5-19.6c-0.1-0.5-0.1-1-0.2-2.2c-2.4,4.9-4.8,9.1-7.6,13
		c-1.7,2.4-3.5,4.6-5.7,6.4c-2.8,2.2-5.4,1-5.8-2.5c-0.8-6.4,1.4-12,4.7-17.3c1-1.6,2.1-3.1,3.5-5.2c-5.6,2-10.7,3.3-15.9,4
		c-2.1,0.3-4.2,0.4-6.3,0.4c-1.7,0-3.3-0.5-4-2.2c-0.6-1.6,0.3-2.9,1.3-4c4.1-4.9,9.7-7.3,15.7-8.7c1.7-0.4,3.4-0.6,6-1.1
		c-5.1-2.5-9.7-4.7-13.6-7.9c-1.8-1.5-3.6-3.1-5.3-4.7c-1.3-1.2-2-2.7-1.3-4.4c0.6-1.5,2.2-1.9,3.7-2c6.2-0.5,11.8,1.5,17,4.7
		c1.2,0.7,2.3,1.5,3.9,2.5c-1-4.4-2-8.3-2.8-12.3c-0.5-2.6-0.6-5.2,0.1-7.8c0.7-2.6,2.1-4.7,4.8-5.2c2.9-0.5,5.1,1.2,6.6,3.5
		c2.6,3.9,3.9,8.3,4,13c0,1.3,0,2.7,0.4,4.1c2.5-3.5,4.4-7.4,7.1-10.7c1.7-2,3.4-4,5.8-5.2C55.7,1747.5,58.1,1747.8,60.4,1749.6z"/>
	<path class="st69" d="M72.8,1780.7c-3.7-3.7-1.7-7.8-0.8-11.8c0.1-0.2,0.3-0.3,0.5-0.3c0.2,0,0.3,0.1,0.3,0.2
		c6.6,4.1,5.5,6.9,0.8,12C73.3,1780.7,73,1780.7,72.8,1780.7z"/>
	<path class="st70" d="M121,1874.8c0.8,10.7-10.1,21.3-21.4,21.2c-11.8-0.2-21.1-9.5-21.1-21.1c-0.1-11.4,9.2-21.1,21.1-21.1
		C111.7,1853.8,120.9,1862.7,121,1874.8z"/>
	<path class="st71" d="M160.9,1899.6c-3.8,5.9-3.3,12.2-2,18.6c-1.4,0.5-1.5-0.9-2-1.5c-5.9-6.1-12.5-11.3-19.5-16.1
		c-1-0.7-2.6-1-3-3.1c5.3,0.3,10.5,0.1,15.5,1C153.6,1899.3,157.4,1897.8,160.9,1899.6z"/>
	<path class="st70" d="M109.6,1718.3c7.3-0.8,15,6.5,15.1,14.8c0.1,8.3-7.5,15.3-14.8,15.3c-8.3,0-15.7-6.9-15.6-14.8
		C94.4,1725.3,100,1718.1,109.6,1718.3z"/>
	<path class="st71" d="M72.8,1768.8c-0.3,0-0.5,0.1-0.8,0.1c-4-0.9-9.6-0.2-20,2.8c4.4-4.7,8.3-9.3,9.5-15.5
		c3.8-1.2,7.6-2.2,11.3-3.6c3.7-1.4,7.3-3,11.4-4.7c-1.2,3.2-3.5,5.4-5.1,8.1C76.6,1760,73.6,1763.9,72.8,1768.8z"/>
	<path class="st57" d="M42.9,1783.2c-0.2,2.1-1.5,3.7-4.1,3.8c-2.5,0.1-5.6-2.3-5.6-4.5c0-2.9,1.8-4.6,4.5-5.1
		C40,1777,42.8,1780,42.9,1783.2z"/>
</g>
<g>
	<path class="st72" d="M460.4,1755.8c-5.6-5.3-10-11.3-11-19.2c2.6,0.3,1.9,3.2,3.4,4.2c-3.8-7.2-4-14.4,0.6-21.6
		c0.5-0.8,1.3-1.6,0.7-2.7c7.8-13.9,31.4-18,43.4-3.9c4,4.7,4.9,10.1,5.7,15.8c-1.4,13-8.8,21.7-21.8,25.5c-1.4,0.4-2.9,0.8-4.2,1.4
		c-5,0.1-10.1-0.4-15,1.2C461.4,1756.5,460.8,1756.4,460.4,1755.8z"/>
	<path class="st73" d="M460.4,1755.8c0.4,0,0.9,0.1,1.3,0.1c4.8,0.8,9.6,2.2,14.6,1.8c1.3-0.1,2.4,0.5,3.4,1.3c2,1.6,4,1.7,6-0.2
		c0.3-0.2,0.7-0.4,1-0.4c12.6,8.9,12.8,24.9,7.7,34.3c-4.2,7.8-10.7,12.7-20.2,13.1c-8.3,0.3-15.4-1.7-21.2-7.9
		c-3-3.2-4.2-7.1-5.2-11c-1.9-7.1-1.9-14.2,2-20.8C452.4,1761.8,456.4,1758.8,460.4,1755.8z"/>
	<path class="st74" d="M477.5,1754.8c0.1-1.1,0.9-1.2,1.8-1.5c12.9-3.3,21.5-10.6,23.5-24.4c0-0.2,0.3-0.4,0.4-0.6
		c1.4,12.1-3.9,20.6-14.2,26.4c-1.6,0.9-2.7,1.7-2.3,3.7c0,0-0.2,0-0.2,0C483,1758.5,480.3,1756.6,477.5,1754.8z"/>
	<path class="st75" d="M477.5,1754.8c3.4,0.4,6.1,2.4,9,3.7c-1.5,3.3-4.1,4.3-6.6,2c-1.8-1.7-3.6-1.9-5.8-1.8
		c-4.4,0.2-8.7-0.3-12.5-2.7C466.8,1753.5,472.1,1753.8,477.5,1754.8z"/>
	<path class="st76" d="M456.1,1745c4.5,4.1,10.1,5.3,16,6.6C467.8,1753.9,459.1,1750.4,456.1,1745z"/>
	<path class="st77" d="M473.4,1751.9c2.6-1.1,5.4-0.4,8.1-1.1C479,1753.2,476.3,1753.1,473.4,1751.9z"/>
	<path class="st78" d="M466.7,1772.2c2,0,3.7,0.9,3.5,3.1c-0.2,2.1-1.7,3.5-4,3.6c-2,0-3.3-1.1-3.3-3.1
		C462.8,1773.4,464.2,1772.3,466.7,1772.2z"/>
	<path class="st79" d="M479.4,1776.1c0.1,1.3-1.3,2.4-3.2,2.4c-2.1,0-3.5-1.7-3.5-3.7c0-1.8,1.4-3.3,3.4-3.4
		C478.5,1771.3,479.3,1773,479.4,1776.1z"/>
	<path class="st80" d="M473.5,1783.2c-0.2-2.3,1.2-3,3.2-3c2.5,0,3.3,1.7,3.4,3.6c0.1,1.8-1,3.1-2.9,3.1
		C475,1786.8,473.3,1785.9,473.5,1783.2z"/>
	<path class="st80" d="M470.5,1784.2c-0.4,1.8-0.8,3.7-3.2,3.8c-2,0.1-3.3-0.9-3.5-3c-0.2-2.2,0.8-3.5,3.1-3.7
		C468.9,1781.1,470.1,1782.1,470.5,1784.2z"/>
</g>
<g>
	<path class="st2" d="M209.3,1707.4c1.2-5.9,2.5-11.9,3.7-17.8c1.6-7.6,3.3-15.2,4.9-22.9c0.4-2,1.3-3.2,3.3-4
		c18.5-7.7,36.9-15.5,55.4-23.3c0.9-0.4,1.8-1.3,2.7-0.5c0.9,0.8,0.3,1.8,0.1,2.8c-0.7,4.7-0.4,9.4-0.8,14.1
		c-0.9,10.8-1,21.6-1.4,32.4c-0.2,5.4-1.4,9.8-6.3,13.7c-12.6,9.7-24.4,20.4-36.5,30.7c-1.7,1.5-3.1,2.3-5.1-0.1
		c-5.9-7.1-12.1-13.9-18.2-20.7C210.2,1710.4,208.8,1709.3,209.3,1707.4z"/>
	<path class="st2" d="M307.4,1651.1c-1.3-0.1-2.3-0.8-3.2-1.4c-6.5-4.1-13-8.3-19.5-12.4c-1.9-1.2-2.1-2.4-2.1-4.8
		c-0.1-8.1,4.2-12.2,11-15.2c4.5-2,8.8-4.7,12.9-7.4c1.9-1.2,3-0.9,4.5,0.6c6.4,6.6,12.9,13.2,19.3,19.7c0.9,1,1.5,1.8,1,3.3
		c-0.8,2.5-1.3,5-2,7.5c-0.2,0.8-0.5,1.8-1.4,2.1C321,1645.9,314.2,1648.5,307.4,1651.1z"/>
	<path class="st2" d="M204.8,1610.2c6.7-0.6,12.9-1.5,19.1-1.1c3.4,0.2,6-1.2,8.6-2.9c4.9-3.2,9.8-6.4,14.7-9.5
		c1.3-0.8,2.4-1.4,4.1-0.9c16.9,4.3,33.8,8.4,50.6,12.5c0.5,0.1,1,0,1.3,1.1c-6.6,3.8-13.3,7.8-20.1,11.5c-2.4,1.3-5.1-0.3-7.7-0.5
		c-14.5-1.6-29-3.6-43.6-5.4c-7.6-1-15.3-1.8-22.9-2.8C207.8,1611.9,206.4,1611.7,204.8,1610.2z"/>
	<path class="st2" d="M306.3,1606.2c-11.3-2.3-22.9-3.3-33.1-7.8c-13.2-5.9-25.6-13.6-38.3-21c4-0.9,8,0.1,11.8,0.3
		c8.8,0.6,17.5,1.7,26.3,2.4c3.6,0.3,6.6,1.2,9.3,3.8c6.9,6.6,14.1,12.9,21.2,19.4C304.5,1604.2,305.3,1605.2,306.3,1606.2z"/>
	<path class="st2" d="M235.2,1735.2c3.8-4.5,8.4-7.2,12.2-10.9c2.1-2.1,4.6-3.7,6.8-5.7c2.1-1.9,3.7-2.6,6.3-0.4
		c7.6,6.4,15.5,12.4,23.2,18.6c0.4,0.4,0.8,0.9,1.6,1.9C268.4,1737.5,252.1,1736.4,235.2,1735.2z"/>
	<path class="st2" d="M282,1646.7c4.5,21.1,9.1,42.3,13.8,64.3c-6-4.7-11.2-9-16-13.8c-1.6-1.6-1.1-3.9-0.7-5.7
		c1.1-5.3,0.6-10.7,1-16C280.7,1666,281.2,1656.5,282,1646.7z"/>
	<path class="st2" d="M194,1676.6c0.8-5.8,1.2-10.8,6.8-13.7c3.2-1.6,5.9-4.1,8.7-6.3c1.6-1.3,2.5-0.9,3.6,0.6
		c2.5,3.4,3.7,6.9,2.3,11.3c-1.3,3.8-1.8,7.9-2.5,11.9c-0.4,2.4-1.3,3.5-3.9,2.6c-4-1.3-8.1-2.4-12.1-3.4
		C194.9,1679.1,193.7,1678.2,194,1676.6z"/>
	<path class="st2" d="M290.4,1675.6c-2.7-12.7-5.1-24.2-7.6-36c3.6,1,5.9,3.3,8.6,4.8c4,2.3,7.8,4.8,11.7,7.2c0.8,0.5,2,1,1.2,2.2
		C300,1660.8,295.5,1667.7,290.4,1675.6z"/>
	<path class="st81" d="M291.5,1719.8c-3.1,1.7-5.3,0-7.6,0.1c-4.6,0.2-9.2,0.1-13.8,0.2c-2.4,0.1-4.3-0.6-6.2-2.1
		c-5.7-4.5-5-3.3-0.2-7.3c5-4.2,3.6-4.6,9.8-1C279.3,1713.1,285.2,1716.3,291.5,1719.8z"/>
	<path class="st71" d="M309.4,1634.5c-2.8-0.2-4.6-1.4-4.8-4.2c-0.2-3,1.4-4.6,4.3-4.8c2.8-0.2,4.5,1.2,4.6,4.1
		C313.8,1632.5,312.2,1634,309.4,1634.5z"/>
</g>
<path class="st82" d="M859.4,1889c-1.3,0.9-2.9,0.7-3.7,2.4c-0.5,0.9-1.3,0.6-1.8-0.1c-0.5-0.8,0-1.6,0.7-1.7
	C856.2,1889.2,857.8,1889.1,859.4,1889z"/>
<g>
	<path class="st83" d="M199.8,1554.2c-3,0.4-0.5,3.7-2.6,4.7c-1.5,0.8-4-2.2-4.8,1.4c-0.2,0.9-2.4,1-2.5,0.4
		c-0.8-2.9-3.7-1.3-5.2-2.7c-1.1-1.6-0.7-2.8,0.8-3.7C190.3,1554.3,195.1,1554.2,199.8,1554.2z"/>
	<path class="st84" d="M185.6,1554.3c-0.6,1.2-1,2.4-0.8,3.7c-0.3,2.4-2.8,3.2-3.5,5.3c-1.1,1-2.3,2.2-3.8,1.3
		c-1.2-0.7-1.4-2.2-0.7-3.6c1.5-2.4,2.7-5,5.1-6.7C183.1,1554.3,184.3,1554.3,185.6,1554.3z"/>
	<path class="st68" d="M69,1614.6c-9.7-10.7-27.6-10-36.4-0.2c-3.9,4.4-5.4,9.7-6,15.4c-1.2,12.5-4.1,24.5-11.4,35.1
		c-3.5,5-7.7,9.1-12.9,12.3c-0.6,0.4-1.5,1.4-2.2,0.2c-0.4-0.8,0.4-1.3,1-1.7c16.1-10.6,21.5-26.7,23.2-44.7
		c1.2-12.1,6.1-21.4,18.4-24.9c10.6-3,20.2-0.7,27.9,7.7C70.5,1614.5,70,1615,69,1614.6z"/>
	<path class="st85" d="M154.5,1598.7c-0.4-2.2,1.9-4.7-0.8-6.7c-0.2-0.1,0.1-1.3,0.2-1.3c2.9-0.3,3.1-4.9,4.1-4.5
		c3,1.2,5-1.3,7.5-1.2c1.6,0.6,1.7,1.8,1.4,3.2c1.3-1.1,2.4-0.9,3.2,0.6c0.1,2.1-2,4.4,0.8,6.3c0.4,0.2-4.4,6.6-4.7,6.3
		c-2.7-2.5-4.7,1.4-7.2,0.7C157.6,1600.9,155.9,1600,154.5,1598.7z"/>
	<path class="st86" d="M110,1640.1c-0.7,1.9-3.9,2.5-3,5.4c0,0.1-1,0.9-1,0.8c-3-2.7-5.2,3.4-6.7,1.4c-1.7-2.4-4.6-1.2-6-3.3
		c0.4-2.3-2.1-3.9-1.6-6.2c0.7-1.8,3.9-2.1,2.8-5c-0.1-0.2,0.9-0.9,1-0.9c3,2.3,5.6-3.3,6.9-1.4c1.7,2.5,4.3,1.3,5.7,3
		C108.3,1636.1,109.9,1637.9,110,1640.1z"/>
	<path class="st87" d="M81.9,1640.5c-2.3,0.3-4.6-2.1-7.1,0c-0.5,0.4-1.5-0.4-1.7-1.1c-0.4-1.6-1-2.6-2.8-2.9
		c-0.7-0.1-1.2-1.6-0.8-1.8c3.6-1.6-3.8-7.4,3-7.6c0.2-1.4,0-3,1.9-3.5c1.6-0.4,2.5,0.4,3.1,1.8c1.2,0.9,1.1-0.8,1.8-1
		c1.8-0.5,3.5-0.4,3.3,1.9c-0.1,1.5-0.2,1.9,1.5,1.6c1.2-0.3,2.3,0.8,1.7,1.7c-1.7,2.5,0.3,4.7,0.1,7c0,0.4-0.2,1-0.4,0.9
		C83,1637,83,1639.3,81.9,1640.5z"/>
	<path class="st88" d="M114.3,1629.7c0-1.3,1-2.8,1-3.6c0-3.2,1.9-4,4-5.8c2-1.7,2.5-3.6,4.7-0.6c1.2,1.5,2.3-1.6,3.7-0.4
		c1.6,1.8,2.3,4.1,4,5.7c0.2,0.8,0.2,1.7-0.4,2.1c-1.5,0.9-2.8,1.7-0.7,3.3c0.1,0,0,0.2,0,0.4c0,1-0.9,2.1-1.4,1.8
		c-3.2-2.2-3.7,7-7.3,1.7c-0.6-0.9-0.7-1-1.3-0.2c-0.7,0.9-1.7,0.9-2.7,0.5C116.1,1633.5,116.1,1630.9,114.3,1629.7z"/>
	<path class="st87" d="M152.2,1609c0.2,1.2,0.2,2.2-0.9,3c-0.2,0.1-0.5,0.1-0.7,0.3c-1.4,1.2,1.8,2.9-0.5,4.3
		c-1.2,0.7-3.4-1.1-3.9,1.9c-0.3,1.9-2.9,2.1-3.7,0.4c-1.2-2.6-1.9-0.5-2.8-0.2c-1.6,0.6-2.6-0.1-2.8-1.7c-0.1-1.3-1-2.1-1.7-3.1
		c-0.6-1.2-1.3-2.6,0.2-3.6c1.1-0.7,0.9-1.5,0.6-2.5c-0.3-0.9,0.4-2.4,0.7-2.2c3.8,2,4-5.1,6.3-3c2.2,2,3.9,0.6,5.7,1.1
		C150.1,1605.2,150.6,1607.5,152.2,1609z"/>
	<path class="st89" d="M176.7,1561.1c1.1,2.7,1.1,2.7,4.5,2.2c0.7,1,1.2,2,0.4,3.1c-0.9,1.2-0.5,1.7,0.7,2.1c0.8,0.2,1.6,1,1.3,1.6
		c-1,2.3-2.3,4.5-3.5,6.7c-2.9-1.6-4.2,1.6-6.4,2.1c-2.2-0.4-4.1-1.4-5.8-2.9c-0.2-2.1,0.9-4.2-1.6-6.3c-1.1-0.9,2.9-3.9,2.8-6.7
		C172.3,1564.7,173.9,1560.6,176.7,1561.1z"/>
	<path class="st90" d="M135.1,1613.8c1.4,0.3,3.4-0.2,2.4,2.5c-0.5,1.5,0.7,2.1,2.1,2.3c-2.5,2.2-5.7,3.6-7.7,6.4
		c-2-1.3-3.1-2.9-4.1-5.7C130.6,1617.9,132.7,1615.8,135.1,1613.8z"/>
	<path class="st91" d="M77.5,1625.4c-2.8-2.8-4-0.8-5,1.7c-1.4-3.2-2-6.7-4.2-9.5c-0.9-1.2,0.4-2,0.7-3c0.6-0.3,1.2-0.6,1.7-1
		c3.5-0.7,2.7,2.8,3.8,4.3C76.2,1620,77.4,1622.6,77.5,1625.4z"/>
	<path class="st92" d="M167.9,1575.9c2.4,0,4.4,1,5.8,2.9c-0.7,0.8-2.4,1.1-0.9,2.7c0.5,0.5,0.5,1.8-0.1,2c-2.5,1-1.6,3.6-2.7,5.3
		c-2.3-0.4-4.1-1.3-4.6-3.8C167.3,1582.2,168.1,1579.2,167.9,1575.9z"/>
	<path class="st93" d="M114.3,1629.7c3.4,0,2.7,3.1,3.8,4.9c-2.7,1.9-5.3,3.7-8,5.6c-1.2-1.9-3.7-3.4-1.8-6.2
		C110.2,1632.5,112.2,1631.1,114.3,1629.7z"/>
	<path class="st94" d="M81.9,1640.5c-0.5-3.2,2.1-3.2,4-4c1.8,0.9,3.6,2.3,5.9,1.6c0.1,0.5,0.2,1.2,0.5,1.3c3,1.1,1.9,3,1.2,4.9
		c-2.8-1.2-6.5,0.4-8.5-3.1C84.3,1640.2,82.7,1641.8,81.9,1640.5z"/>
	<path class="st93" d="M152.2,1609c-3.2-0.5-3-3.2-3.5-5.4c3-0.4,4.2-2.9,5.8-4.9c2.2,0.4,4.3,0.8,4.5,3.5
		C156.4,1604.2,153.7,1606.1,152.2,1609z"/>
	<path class="st95" d="M162.2,1596.4c-1.9-0.2-2.5-1.3-2.5-2.9c0-1.7,1-2.5,2.7-2.3c1.5,0.2,2.6,1.2,2.4,2.7
		C164.6,1595.5,163.4,1596.2,162.2,1596.4z"/>
	<path class="st96" d="M98.2,1639c0.4-1.5,1.2-2.5,2.9-2.4c1.6,0.2,2.5,1.2,2.4,2.8c-0.1,1.6-1.1,2.5-2.8,2.4
		C99.1,1641.7,98.4,1640.5,98.2,1639z"/>
	<path class="st97" d="M75.3,1632.7c0-1.8,0.8-2.9,2.3-3.1c1.6-0.2,2.6,0.9,2.8,2.3c0.2,1.5-0.6,2.6-2.3,2.8
		C76.5,1634.9,75.5,1634.2,75.3,1632.7z"/>
	<path class="st95" d="M125.6,1626.9c-0.1,1.5-1,2.6-2.5,2.6c-1.6,0.1-2.6-1-2.7-2.5c-0.1-1.6,0.8-2.5,2.5-2.6
		C124.5,1624.4,125.4,1625.1,125.6,1626.9z"/>
	<path class="st98" d="M140.4,1611.1c0-1.7,1-2.5,2.6-2.6c1.6-0.1,2.6,0.7,2.7,2.3c0.1,1.6-0.7,2.6-2.3,2.8
		C141.6,1613.8,140.8,1612.6,140.4,1611.1z"/>
	<path class="st99" d="M174.9,1572.4c-1.6-0.1-2.6-0.8-2.7-2.4c-0.1-1.5,0.8-2.6,2.4-2.7c1.7-0.1,2.8,0.9,2.8,2.7
		C177.5,1571.5,176.4,1572.3,174.9,1572.4z"/>
</g>
<g>
	<path class="st1" d="M427.2,1632.9c-6.9-13-5.4-25.7,3-37.1c9.2-12.6,22.7-17.5,37.6-14.1c14,3.1,22.1,11.2,24.3,24.6
		c0.2,1.1,0.5,2.2,0.7,3.3c-0.3,5.6-0.3,11.1-3.3,16.2c-7,12.2-17.7,18.7-31.3,20.3c-4,0.5-8.2,0.5-12.3-0.2
		C437.6,1644.3,431.4,1640,427.2,1632.9z"/>
	<path class="st100" d="M427.2,1632.9c2.7,2.4,4.7,5.5,7.7,7.4c10.8,6.9,22.4,6.4,33.7,2.2c12.3-4.6,20.5-13.3,23.4-26.5
		c0.5-2.2-0.4-4.5,0.8-6.5c1.1,10.2-0.9,19.4-7.5,27.6c-9.7,11.9-30.9,17.2-44.9,10.9C433.7,1644.9,430,1639.2,427.2,1632.9z"/>
	<path class="st101" d="M471,1620.2c-0.3,2.3-1.6,3.9-4.5,3.9c-2.9,0-4.9-2-4.8-5.3c0.1-3,2.4-4.3,4.8-4.9
		C468.6,1613.4,470.9,1616.6,471,1620.2z"/>
	<path class="st102" d="M468.9,1601.4c-0.1,3.1-2.1,4.4-4.6,4.5c-2.5,0.1-4.8-0.9-5.1-3.8c-0.3-2.2,3.3-5.9,5.4-5.7
		C467.7,1596.6,468.5,1598.9,468.9,1601.4z"/>
	<path class="st103" d="M451.7,1628.8c-2.7,0.1-4.9-2.1-4.9-4.5c0-2.5,2.6-5.2,4.9-5.2c2.8,0.1,4.4,1.7,4.6,4.4
		C456.5,1626.2,454.2,1628.7,451.7,1628.8z"/>
	<path class="st104" d="M446.3,1610.2c-3.1,0.1-5.2-1.8-5.2-4.9c-0.1-2.9,1.3-4.7,4.3-4.9c2.7-0.2,5.4,2.6,5.4,5.5
		C450.9,1608.3,449.1,1610.1,446.3,1610.2z"/>
	<path class="st105" d="M463.9,1619.4c-0.2-2,0.2-2.9,1.9-3c1.9-0.1,2.7,1.2,2.9,2.7c0.2,1.5-0.5,2.6-2.3,2.7
		C464.4,1621.9,464.2,1620.3,463.9,1619.4z"/>
	<path class="st106" d="M463.7,1603.8c-1.5-0.1-2.5-0.7-2.4-2.3c0.2-1.6,1-2.9,2.8-3c1.7,0,2.4,1.1,2.5,2.7
		C466.6,1603.2,465.2,1603.6,463.7,1603.8z"/>
	<path class="st107" d="M451.7,1627.1c-1.6-0.3-2.7-1.1-2.8-2.9c-0.1-2,1-3.2,2.8-3.3c1.5-0.1,2.4,1.1,2.5,2.7
		C454.4,1625.4,453.6,1626.6,451.7,1627.1z"/>
	<path class="st108" d="M446,1608.7c-2.3-0.1-3.2-1.7-3.3-3.7c-0.1-2,1.4-2.9,3.1-2.9c2.3,0.1,2.9,2.2,3.1,4
		C449.2,1607.9,447.7,1608.5,446,1608.7z"/>
</g>
<g>
	<path class="st109" d="M548,1604.7c4.1-7.3,10.3-11.8,18.5-12.9c8-1.1,15.7-0.5,22.5,5.2c4.6,3.9,7,8.5,7.9,14.2
		c0.2,1.1,0.4,2.2,0.6,3.3c-1.3,17-12.4,27.2-29.8,27.6c-2.6,0-5.2,0.3-7.8-0.3c-5-1.2-9.3-3.5-12.2-7.9c-2.1-2.9-3.8-5.9-3.8-9.7
		c2.5,0.2,2,2.8,3.7,4.4c-4.1-7.9-4.2-15.3,0.4-22.5C548.4,1605.6,548.3,1605.1,548,1604.7z"/>
	<path class="st110" d="M547.8,1633.8c12.6,9.5,26.7,9.9,39,0.9c6.2-4.6,9.8-10.7,10.3-18.5c0-0.6,0.3-1.1,0.5-1.7
		c2.9,18.2-12.3,30.6-27.4,31.2C560.3,1646,552.1,1643.8,547.8,1633.8z"/>
	<path class="st111" d="M567.9,1598c2.3-3.4,5.2-3.1,7.8-2.7c8,1.3,15.4,8.3,16.5,16.2c1.2,8.1-1.9,14.8-8.5,19.8
		c-6,4.6-12.8,6.4-20.3,5.2c-15.4-2.6-19-18.8-11.7-30.1c3.4-5.3,8.2-8.6,14.7-9.5c-1.7,0.9-3.4,1.7-5.1,2.6
		c-10.6,5.9-14.5,18.1-9,28c2.2,3.9,5.6,5.8,9.7,6.9c7.7,2.1,19.6-1.9,24.2-8.3c4.9-6.7,5.7-13.9,0.9-20.8
		C582.9,1599.2,576.4,1596.6,567.9,1598z"/>
	<path class="st112" d="M560.8,1605.9c5-0.7,9.8-2.7,15-2.5c1,0,2,0.1,2.9,0.3c1.4,0.5,3,1.2,3,2.9c0.1,1.5-1.3,2.3-2.5,2.9
		c-6,3-12.5,4-19.1,3.7c-3.8-0.1-4.4-2.2-2.2-5.9C558.2,1605.6,559.2,1605.2,560.8,1605.9z"/>
	<path class="st112" d="M565.6,1620.8c4.9-1.1,9.7-3.1,14.9-2.6c1.7,0.2,3.5,0,4.1,1.8c0.6,1.7-1.2,2.7-2.3,3.5
		c-6,3.8-12.7,4.8-19.6,4.6c-1.1,0-2.6-0.5-2.9-2c-0.4-1.7,1-2.4,2.1-3.1c0.7-0.5,1.4-1,2.1-1.5
		C564.4,1620.9,564.8,1620.4,565.6,1620.8z"/>
	<path class="st113" d="M550.6,1632.6c4.4,2.8,9,5.1,14.3,5.5c0.6,0,1.4,0.4,1.2,1.1c-0.2,1-1.3,1.2-2.1,1
		C558.8,1639,554,1637.1,550.6,1632.6z"/>
	<path class="st113" d="M565.6,1620.8c-0.5,0.3-1,0.5-1.5,0.8c-2.9,0-4.7,1.9-6.3,4.2c-0.2-3.3,5.1-7.4,7.8-6.3
		C565.8,1619.6,565.6,1620.4,565.6,1620.8z"/>
	<path class="st114" d="M560.8,1605.9c-1.1,0.2-2.1,0.7-2.9,1.5c-1.8,0-2.4,1.8-3.8,2.9c0.3-2.7,4.3-6.7,6.2-6.5
		C562.2,1604,561,1605.1,560.8,1605.9z"/>
	<path class="st105" d="M558.2,1610.7c2.9-3.9,7.2-3.9,10.9-4.7c2.7-0.6,5.7-0.3,8.5-0.4c0.7,0,1.6,0,1.8,0.9
		c0.2,0.9-0.6,1.3-1.2,1.7c-2.8,1.7-6.1,2.3-9.2,2.7C565.6,1611.3,562,1612.9,558.2,1610.7z"/>
	<path class="st105" d="M562.4,1625.6c5.6-4.1,11.9-5.8,18.7-5.7c0.6,0,1.4,0.2,1.4,0.9c0,0.5-0.6,1.1-1,1.4
		c-1.9,1.5-4.2,2.1-6.5,2.7C570.8,1626,566.7,1626.4,562.4,1625.6z"/>
</g>
<g>
	<path class="st115" d="M955.2,1903.2c-0.1,4.5-2.9,7.7-7.4,8.3c-5,0.6-10,0.5-14.7-1.7c-3.3-1.5-6.5-1.9-10.1-1
		c-3.1,0.8-6.4,0.7-9.6-0.4c-2-0.7-4-1-3.9-4c0-2.4-2.6-2.4-4.1-2.3c-3.3,0.2-5.7-1.3-8.2-2.9c-1.1-0.7-2.1-1.4-1.9-2.9
		c0.2-1.5,1.5-2,2.6-2.3c1.6-0.5,3.2-0.4,4.8,0c2.8,0.8,5.6,1.4,8.2,2.5c6.2,2.6,12.4,3.7,18.7,0.5c1.2-0.6,3-1.2,3.9-0.7
		c4,2,5.4-0.9,6.9-3.3c4-6.8,9.4-11.9,17.2-14.1c1-0.3,1.7-0.9,2.3-1.8c9.1-14.1,19.6-27,31.7-38.6c9.5-9.1,20.2-16.5,30.8-24.3
		c0.9-0.7,1.9-1.2,3-1.6c3.2-1.3,4.3-0.6,5,3c0.9,1.8-0.3,3.1-1.2,4.4c-10,13.2-20.1,26.3-31.4,38.5c-3.4,3.6-7.3,6.8-10.7,10.4
		c-0.8,0.9-1.9,1-2.9,1.5c-6.2,4.7-12.3,9.5-18.6,14.1c-1.3,0.9-1,1.7-0.8,2.8c0.9,6.2-2,10.7-6.8,14.2
		C957.1,1902.1,955.9,1902.2,955.2,1903.2z"/>
	<path class="st116" d="M984.1,1870.4c14.8-13.4,27.6-28.6,39.4-44.6c2.4-3.3,5.7-6,6.9-10.1c2.7,1.5,1,3.3,0.1,4.6
		c-3.7,5.3-7.5,10.5-11.5,15.6c-8.7,11.2-17.8,22.1-27.9,32.1C989.1,1869.8,987.3,1872.1,984.1,1870.4z"/>
	<path class="st117" d="M955.2,1903.2c-0.4-0.3-0.4-0.8,0-0.9c6.1-3.1,8.9-8.4,9.6-15c0.8,0.1,1.4,0.4,1.4,1.3
		C966.7,1895,961.5,1901.9,955.2,1903.2z"/>
	<path class="st118" d="M1028.6,1815.8c-2.7,5.8-7.2,10.4-11,15.4c-7.4,9.8-15.3,19.2-23.9,28c-2.4,2.5-5.1,4.7-7.6,7.2
		c-1.3,1.3-2.6,1.4-4,0.4c-3.1-2.2-5.3-4.8-5.2-8.9c4-5.6,8.9-10.5,13.8-15.1c10.1-9.5,20.8-18.2,32.7-25.4
		C1025.1,1816.4,1026.5,1814.8,1028.6,1815.8z"/>
	<path class="st119" d="M963,1887.3c0.5,6.1-3,10.1-7.7,13c-4.3,2.7-9.2,3.5-14.5,2.9c10.4-2.6,15.1-5,18.3-9.7
		c-4,2.2-7.1,4.6-10.7,6c-3.6,1.3-7.4,1.9-11.9,2.5c3.2-1.9,6.5-2.3,8.8-5.1c-2.6-0.4-4.1,1.8-6.5,1.8c0.5-3.3,3.3-4.9,4.7-7.3
		c3.1-3.8,7.4-6,11.7-8.1c1.5-0.7,2.8-0.8,3.8,0.8C959.9,1885.7,961.7,1886.1,963,1887.3z"/>
	<path class="st120" d="M979.5,1867.9c-2.6-1.2-3.5-3.7-5.1-5.7c-0.1,4.3,3.5,6.2,6.4,9c-4.2,3.1-8.2,6.2-12.4,9.1
		c-3.1,2.2-3.8-1.4-5.5-2.8c-0.8,2.5,1.4,3.3,2.1,4.9c-1.4,1.4-2.4,0.4-3.3-0.7c-1.5-1.7-1.1-3.6,0-5.2c3-4.4,6.1-8.7,9.3-13
		c1.2-1.6,2-3.4,4.1-4.8C976.1,1862.2,977.6,1865.1,979.5,1867.9z"/>
	<path class="st121" d="M1028.6,1815.8c-7.6,3.2-14,8.4-20.5,13.3c-10.3,7.8-19.7,16.7-28.4,26.2c-0.8,0.9-1.8,1.7-2.7,2.5
		c0.1-4.1,3.7-6,6-8.5c12.3-13.4,26.4-24.7,41.7-34.6C1026.5,1813.6,1028.2,1812.5,1028.6,1815.8z"/>
	<path class="st122" d="M963,1887.3c-2.1,0.4-3.8-0.6-4.6-2.3c-0.8-1.8-1.5-1.6-2.9-0.9c-4.2,2.1-8.2,4.4-11.9,7.3
		c3-5.5,7.8-8.7,13.5-10.8c1.1-0.4,2-0.8,2.6,0.8C960.4,1883.5,963.2,1884.5,963,1887.3z"/>
	<path class="st123" d="M947.5,1904.6c-6.2,1.1-12.4,1.5-19.6,0c4-1.8,7,0,10,0.1C941.1,1904.8,944.3,1904.6,947.5,1904.6z"/>
	<path class="st124" d="M1009.6,1830.8c-4.3,6.6-9.7,11.5-15,16.5c-3.5,3.3-7.2,6.5-10,10.5c-0.3,0.4-0.7,0.7-1,1.1
		c-1.1,1.2-2.6,2.8-4.1,1.5c-1.8-1.6,0.4-2.8,1.3-3.9c7.4-8.3,15.8-15.5,23.9-23.1C1006,1832.3,1007.2,1831,1009.6,1830.8z"/>
	<path class="st125" d="M1003.8,1844.3c-5.1,7.2-11.3,13.4-17.3,18.5C991.9,1857,997.8,1850.7,1003.8,1844.3z"/>
</g>
<g>
	<path class="st126" d="M418,1675.1c-0.6,1.7-0.5,3.6-0.9,5.3c-0.3,1.4,0.2,2.3,1.7,2.6c0.9,0.2,1.7,0.7,1.8,1.8
		c0.1,1.1-0.3,1.9-1.3,2.4c-0.4,0.2-0.8,0.6-1.2,0.7c-1.1,0.4-1.4,1.1-1.4,2.2c0.1,1.2,0.1,2.3-0.2,3.5c-0.2,0.8-0.2,1.5,1.1,1.1
		c0.6-0.2,1.3-0.1,1.9-0.1c1,0,1.9,0.3,2.2,1.2c0.4,0.9,0,1.8-0.6,2.5c-1,1.2-2.2,2-3.6,2.6c-0.4,0.2-1.2,0.3-1,1
		c0.2,0.7,0.9,0.4,1.4,0.4c3.8,0.1,7.6,0.5,11.3,1.9c5.7,2.3,10,7.6,9.7,14.1c-0.1,1.8,0,3.6-0.4,5.4c-0.7,3.2-2.3,5.8-4.8,7.9
		c-1.4,1.1-2.6,2.3-3.6,3.9c-1,1.6-1.1,3.2-0.3,4.9c1,1.9,2.3,3.6,3.5,5.4c3.3,4.9,2.9,8.4-1.3,12.5c-0.8,0.7-1.3,1.1-0.1,2.2
		c1.8,1.7,2.1,3.9,1.3,6.2c-0.2,0.7-0.5,1.3-1.3,1.1c-0.9-0.2-0.7-1-0.4-1.6c0.6-1.6,0.5-3.1-0.7-4.3c-0.8-0.9-1.6-1.3-2.9-0.5
		c-3.1,2.1-6.5,3.8-10.2,4.4c-3.3,0.5-6.6,0.5-9.1-2.2c-2.1-2.1-1.5-4.7,1.3-5.6c6.1-2,12.2-2,18.2,0.2c0.9,0.3,1.5,0.2,2.1-0.4
		c1.1-1.2,2.4-2.1,3.1-3.7c1.2-2.6,0.2-4.9-1.2-7.1c-1-1.6-2.2-3.2-3.2-4.8c-2.1-3.3-1.7-6.4,1-9.3c1.5-1.6,3.5-2.8,4.8-4.7
		c3-4.7,3.7-9.7,1.6-14.9c-2.2-5.5-7-7.6-12.4-8.6c-2-0.4-4-0.3-6.1-0.3c-0.9,0-1.4,0.3-1.2,1.2c0.2,0.8-0.8,2.1,1,2.4
		c1.3,0.2,2.8,0.2,3.2,1.9c0.3,1.7-1.1,2.5-2.2,2.9c-1.8,0.7-2,2-2,3.6c0.1,4.7,0,9.3,0,14c-0.6,0.6-1.3,0.7-2,0.9
		c-6.2,1.6-12.5,2.5-19,2.9c-10.3,0.7-20.1-1.6-29.8-4.5c-0.3-0.1-0.5-0.2-0.7-0.4c-0.1-0.1-0.1-0.1-0.2-0.2c0-4.8,0-9.5,0.1-14.3
		c0-0.9-0.2-1.5-1-1.9c-0.5-0.2-0.9-0.5-1.3-0.9c-1.7-1.3-2.1-3.5-0.8-5.2c0.6-0.9,1.3-1.7,2.3-2.2c0.8-0.4,0.8-1,0.8-1.7
		c0-0.8-0.5-1.1-1.1-1.4c-0.9-0.4-1.9-0.7-2.7-1.3c-1.6-1.2-1.8-2.6-0.4-4c0.9-1,2.1-1.6,3.4-1.7c0.9-0.1,0.9-0.4,0.9-1.1
		c0-0.5-0.1-1.1,0-1.6c0.3-1.8-0.2-3-2.2-3.6c-1.3-0.4-2.6-1.3-2.2-2.9c0.3-1.6,1.7-2.4,3.2-2.5c1.5-0.1,1.6-0.7,1.6-1.9
		c-0.1-2.5,0.3-5-0.3-7.5c0.7-0.4,1.5,0,2.2,0.1c7,1.7,14,2.6,21.2,3c7.7,0.4,15.3-0.4,23-1.2c1.7-0.2,3.4-0.4,5.1-0.7
		C416.8,1674.7,417.5,1674.6,418,1675.1z"/>
	<path class="st8" d="M358.3,1660.7c0.1-2.6,1.7-4,3.8-4.8c4.6-1.8,9.5-2.4,14.3-3.2c6.6-1.1,13.2-0.9,19.8-0.5
		c6.3,0.3,12.8,0.4,19,1.9c3.2,0.7,6.3,1.7,8.3,4.7c0.5,0.8,0.9,1.7,0.9,2.7c-0.9,2.7-3.2,3.8-5.5,4.7c-4.1,1.7-8.5,2.4-13,2.8
		c-13.3,1-26.5,0-39.4-3.5c-2.1-0.6-4.1-1.3-6-2.3C359.7,1662.5,358.8,1661.8,358.3,1660.7z"/>
	<path class="st9" d="M358.3,1660.7c3.4,3.2,7.8,4,12.1,5.1c4.7,1.2,9.6,1.8,14.5,2.3c6.1,0.7,12.2,0.8,18.2,0.5
		c5.5-0.2,11-1.1,16.2-3.2c2.1-0.8,3.8-2.3,5.2-4.1c0.7,2,0.4,4.1,0.2,6.2c0,0.6-0.6,0.9-1.1,1.3c-2,1.9-4.3,3.7-5.6,6.3
		c-3,0.3-5.9,0.6-8.9,1.1c-2.7,0.4-5.4,0.7-8.1,0.8c-3.2,0.1-6.5,0.6-9.7,0.4c-9-0.4-17.9-1.3-26.6-3.8c-1.9-2.8-3.5-5.8-6.3-7.9
		c-1-0.7-0.3-2.2-0.4-3.4C358,1661.8,358.2,1661.2,358.3,1660.7z"/>
	<path class="st8" d="M355.1,1736.8c2.1-1.5,4.4-2.8,6.7-3.9c1.7-0.8,2.8-1.9,2.9-3.9c0,0,0.1,0,0.1,0c0.5,2.2,2.3,2.8,4.1,3.5
		c6.2,2,12.5,3.3,19,4c6.3,0.7,12.6,0.8,18.8-0.5c2.8-0.6,5.5-1.6,8-3.1c0.5-0.3,1-0.8,1.7-0.6c1.1,1.7,2.9,2.4,4.4,3.5
		c0.8,0.6,1.7,1.1,1.7,2.3c-0.8,1.9-2.4,2.7-4.1,3.3c-10.2,3.3-20.7,5.5-31.5,4.9c-3.3-0.2-6.6-0.7-9.8-1.5
		c-4.2-1.1-8.6-1.9-12.7-3.4c-2.9-1.1-5.5-2.8-8.5-3.8C355.6,1737.5,355.3,1737.2,355.1,1736.8z"/>
	<path class="st9" d="M355.1,1736.8c3.6,1,6.7,3.1,10.1,4.3c4.6,1.6,9.4,2.7,14.2,3.7c4.4,0.9,8.8,1.1,13.3,1
		c6.5-0.1,12.9-1.4,19.1-3.1c2-0.5,3.9-1.1,5.8-1.6c1.9-0.5,3.4-1.8,4.8-3c0.6,1.5,0.3,3.1,0.3,4.6c0,0.8-0.7,1.2-1.4,1.4
		c-8.1,3.2-16.2,6.3-25.1,6.9c-9.8,0.7-19.3-0.7-28.7-3.3c-2.4-0.7-4.9-1.2-7.2-2c-4.4-1.4-5.3-2.7-5.3-7.3
		C355.1,1737.9,355.1,1737.4,355.1,1736.8z"/>
	<path class="st127" d="M416.5,1732.3c-4.2,3-9.1,4.3-14.2,4.8c-11.2,1.1-22-0.7-32.7-3.9c-1.1-0.3-2.1-0.7-3.1-1.1
		c-1.7-0.6-1.9-1.6-1.7-3.1c3.5,0.9,7,1.9,10.5,2.7c4.2,0.9,8.3,1.6,12.6,1.9c9.3,0.5,18.2-0.7,27.2-3.1c0.5-0.1,0.9-0.1,1.4-0.2
		C416.5,1731,416.5,1731.7,416.5,1732.3z"/>
	<path class="st71" d="M427.1,1759.8c-3.6,2.4-7.2,4.2-11.3,4.5c-2.1,0.2-4.3-0.1-5.9-1.8c-1.2-1.2-1.1-2.1,0.6-2.8
		c3.4-1.3,6.9-1.7,10.5-1.3C422.9,1758.6,425,1758.7,427.1,1759.8z"/>
	<path class="st105" d="M416.6,1699.4c-0.2-2.3,0.5-3.1,2.6-3c0.8,0.1,1,0.4,0.5,1C418.9,1698.4,418,1699.2,416.6,1699.4z"/>
</g>
<g>
	<path class="st66" d="M988.6,1731.5c-3.1,6.1-6.6,11.8-10.8,17.1c-3.1,3.9-6.4,7.5-11.4,8.9c-5.7,1.5-10.4-1.8-10.8-7.6
		c-0.3-5.8,1.8-10.8,4.7-15.7c2.7-4.5,6.2-8.4,10.1-12.5c-2.3-0.3-4,0.8-5.7,1.3c-6,1.6-12,2.9-18.1,3.2c-3.7,0.2-7.6-0.3-10.9-2.6
		c-4.5-3.2-5.2-8.2-1.6-12.5c4.9-5.7,11.5-7.5,18.5-8.8c4-0.7,8.1-0.6,13.1-0.7c-6.2-3.2-11.5-6.2-16.4-9.8c-2.6-2-5.2-4-7.3-6.6
		c-3.8-4.7-4.6-9.7-2.2-13.3c2.1-3.2,7.7-4.4,13-3c7.3,1.9,13.1,6.3,18.5,11.3c1.7,1.5,2.9,3.4,4.8,4.8c-1.2-4.7-2.7-9.1-3.6-13.7
		c-1.4-7-3-14.1-2.1-21.3c0.7-5.5,4.3-6.8,8.7-3.5c8.4,6.5,12.1,15.6,14.2,25.5c0.6,2.7,0.9,5.4,1.4,8.7c3.9-9.3,9.1-17.2,15.2-24.5
		c1.2-1.4,2.5-2.7,3.7-4.1c2-2.2,4.6-3.5,7.4-2.5c2.9,1,2.9,4,3.1,6.5c0.5,7.3-1.3,14-4.6,20.4c-2.3,4.5-5.2,8.5-8.2,12.6
		c5.3-1.8,10.6-3.2,16-4.4c5-1.1,10.1-1.4,15.2-2c1-0.1,2.1-0.1,3.1,0.1c2.5,0.5,4.9,1.2,5.9,3.9c0.9,2.5-0.8,4.4-2.2,6
		c-4.7,5.7-10.9,9.2-17.9,11.5c-4.9,1.6-9.9,2.1-15.6,3.2c6,2.9,11.5,5.6,16.4,9.1c4.4,3.1,8.6,6.3,12.4,10.2c2,2.1,3.3,4.5,2.2,7.2
		c-1.1,2.5-3.7,3-6.3,3.1c-11.1,0.4-20.6-3.9-29.3-10.3c-0.9-0.6-1.7-1.3-3.2-2.3c2.9,7.9,4.6,15.4,5.5,23c0.5,4.6,0.2,9-2.4,13
		c-3.3,4.9-8.5,5.5-12.9,1.5c-5.7-5.3-7.4-12.3-8.5-19.6C989,1738.8,988.7,1735.2,988.6,1731.5z"/>
	<path class="st57" d="M991.3,1698.2c4.8,0,8.8,3.3,8.7,7.2c0,4-3.7,7.6-7.7,7.6c-4.1,0-7.2-3.9-7.1-9
		C985.2,1699.9,987,1698.2,991.3,1698.2z"/>
</g>
</svg>
